<svg width="16" height="16" viewBox="0 0 16 16" fill="none" xmlns="http://www.w3.org/2000/svg">
<g clip-path="url(#clip0_74_49055)">
<path d="M5.1555 1.08447L2.61328 1.55558V5.02225L5.1555 5.56447L7.70661 4.54225V1.95558L5.1555 1.08447Z" fill="url(#paint0_linear_74_49055)"/>
<path d="M2.61328 1.55567V5.02234L5.18217 5.56456V1.12012L2.61328 1.55567ZM3.69773 4.75567L2.97773 4.61345V1.94678L3.69773 1.83123V4.75567ZM4.81773 4.96012L3.99106 4.82678V1.7779L4.81773 1.63567V4.96012Z" fill="#341A6E"/>
<path d="M10.6577 1.12891L8.11548 1.60002V5.06668L10.6577 5.60891L13.1999 4.5778V2.00002L10.6577 1.12891Z" fill="url(#paint1_linear_74_49055)"/>
<path d="M8.11548 1.60011V5.06677L10.6666 5.60899V1.16455L8.11548 1.60011ZM9.19103 4.80011L8.47103 4.65788V1.99122L9.19103 1.87566V4.80011ZM10.311 5.00455L9.48437 4.87122V1.82233L10.311 1.67122V5.00455Z" fill="#341A6E"/>
<path d="M2.55101 5.8667L0.00878906 6.33781V9.80448L2.55101 10.3467L5.10212 9.32448V6.73781L2.55101 5.8667Z" fill="url(#paint2_linear_74_49055)"/>
<path d="M0 6.33771V9.77771L2.56889 10.3199V5.87549L0 6.33771ZM1.07556 9.5466L0.355556 9.39549V6.72882L1.07556 6.60438V9.5466ZM2.20444 9.77771L1.37778 9.64438V6.55993L2.20444 6.41771V9.77771Z" fill="#341A6E"/>
<path d="M8.03563 5.83105L5.49341 6.30217V9.76883L8.03563 10.3199L10.5779 9.28883V6.70217L8.03563 5.83105Z" fill="url(#paint3_linear_74_49055)"/>
<path d="M5.49341 6.30215V9.77771L8.05341 10.3199V5.87549L5.49341 6.30215ZM6.56896 9.51104L5.84896 9.35993V6.69327L6.56896 6.56882V9.51104ZM7.68896 9.7066L6.8623 9.57327V6.52438L7.68896 6.38215V9.7066Z" fill="#341A6E"/>
<path d="M13.52 5.87549L10.9778 6.3466V9.81327L13.52 10.3555L16.0711 9.33327V6.7466L13.52 5.87549Z" fill="url(#paint4_linear_74_49055)"/>
<path d="M10.9778 6.3466V9.77771L13.5467 10.3199V5.87549L10.9778 6.3466ZM12.0622 9.55549L11.3422 9.40438V6.73771L12.0622 6.61327V9.55549ZM13.1822 9.75104L12.3556 9.61771V6.56882L13.1822 6.4266V9.75104Z" fill="#341A6E"/>
<path d="M5.09325 10.7021L2.55103 11.1644V14.631L5.09325 15.1821L7.64436 14.151V11.5733L5.09325 10.7021Z" fill="url(#paint5_linear_74_49055)"/>
<path d="M2.55103 11.1643V14.6309L5.11991 15.1821V10.6665L2.55103 11.1643ZM3.63547 14.3732L2.91547 14.2221V11.5554L3.63547 11.4309V14.3732ZM4.75547 14.5776L3.9288 14.4443V11.3865L4.75547 11.2443V14.5776Z" fill="#341A6E"/>
<path d="M10.5867 10.7378L8.04443 11.2089V14.6756L10.5867 15.2178L13.1378 14.1956V11.6089L10.5867 10.7378Z" fill="url(#paint6_linear_74_49055)"/>
<path d="M8.04443 11.209V14.6757L10.6133 15.2179V10.7734L8.04443 11.209ZM9.12888 14.4179L8.40888 14.2668V11.6001L9.12888 11.4757V14.4179ZM10.2489 14.6134L9.42221 14.4801V11.4312L10.2489 11.289V14.6134Z" fill="#341A6E"/>
</g>
<defs>
<linearGradient id="paint0_linear_74_49055" x1="2.61328" y1="3.32447" x2="7.70661" y2="3.32447" gradientUnits="userSpaceOnUse">
<stop stop-color="#B77AF4"/>
<stop offset="1" stop-color="#773ADC"/>
</linearGradient>
<linearGradient id="paint1_linear_74_49055" x1="8.11548" y1="3.36891" x2="13.1999" y2="3.36891" gradientUnits="userSpaceOnUse">
<stop stop-color="#B77AF4"/>
<stop offset="1" stop-color="#773ADC"/>
</linearGradient>
<linearGradient id="paint2_linear_74_49055" x1="0.00878906" y1="8.1067" x2="5.09323" y2="8.1067" gradientUnits="userSpaceOnUse">
<stop stop-color="#B77AF4"/>
<stop offset="1" stop-color="#773ADC"/>
</linearGradient>
<linearGradient id="paint3_linear_74_49055" x1="5.49341" y1="8.07105" x2="10.5779" y2="8.07105" gradientUnits="userSpaceOnUse">
<stop stop-color="#B77AF4"/>
<stop offset="1" stop-color="#773ADC"/>
</linearGradient>
<linearGradient id="paint4_linear_74_49055" x1="10.9778" y1="8.11549" x2="16.0711" y2="8.11549" gradientUnits="userSpaceOnUse">
<stop stop-color="#B77AF4"/>
<stop offset="1" stop-color="#773ADC"/>
</linearGradient>
<linearGradient id="paint5_linear_74_49055" x1="2.55103" y1="12.9421" x2="7.64436" y2="12.9421" gradientUnits="userSpaceOnUse">
<stop stop-color="#B77AF4"/>
<stop offset="1" stop-color="#773ADC"/>
</linearGradient>
<linearGradient id="paint6_linear_74_49055" x1="8.04443" y1="12.9778" x2="13.1378" y2="12.9778" gradientUnits="userSpaceOnUse">
<stop stop-color="#B77AF4"/>
<stop offset="1" stop-color="#773ADC"/>
</linearGradient>
<clipPath id="clip0_74_49055">
<rect width="16" height="16" fill="white"/>
</clipPath>
</defs>
</svg>
