<svg width="28" height="28" viewBox="0 0 28 28" fill="none" xmlns="http://www.w3.org/2000/svg">
<path d="M25.0179 13.1258C25.0179 20.2363 16.2664 25.9592 14.3624 27.1258C14.2531 27.1922 14.1278 27.2272 13.9999 27.2272C13.8721 27.2272 13.7468 27.1922 13.6375 27.1258C11.7335 25.9638 2.98193 20.2409 2.98193 13.1258V4.57028C2.98273 4.3909 3.05392 4.219 3.18018 4.09157C3.30644 3.96415 3.47768 3.89139 3.65704 3.88894C10.4657 3.71161 8.89771 0.777832 13.9999 0.777832C19.1022 0.777832 17.5342 3.71161 24.3428 3.88894C24.5214 3.89137 24.6919 3.96349 24.8181 4.08991C24.9442 4.21633 25.0159 4.38704 25.0179 4.56561V13.1258Z" fill="#76BC2D"/>
<path d="M24.1111 13.199C24.1111 19.7183 16.0845 24.9683 14.3391 26.0323C14.2388 26.0933 14.1237 26.1255 14.0062 26.1255C13.8888 26.1255 13.7737 26.0933 13.6734 26.0323C11.9218 24.9683 3.88892 19.7183 3.88892 13.199V5.35273C3.88892 5.18771 3.95447 5.02945 4.07116 4.91276C4.18785 4.79607 4.34611 4.73051 4.51114 4.73051C10.7582 4.56562 9.32092 1.87451 14 1.87451C18.6791 1.87451 17.2418 4.56562 23.4889 4.73207C23.6539 4.73207 23.8122 4.79762 23.9289 4.91431C24.0456 5.031 24.1111 5.18927 24.1111 5.35429V13.199Z" fill="url(#paint0_linear_74_44655)"/>
<path d="M18.438 11.9156H17.8034V9.71137C17.8088 8.66952 17.4198 7.66422 16.7145 6.89737C16.3708 6.52086 15.9524 6.22012 15.4859 6.01436C15.0195 5.8086 14.5153 5.70233 14.0055 5.70233C13.4957 5.70233 12.9915 5.8086 12.525 6.01436C12.0586 6.22012 11.6402 6.52086 11.2965 6.89737C10.5853 7.65992 10.1953 8.66718 10.2076 9.70981V11.9156H9.56204C9.42939 11.9164 9.30225 11.9688 9.20759 12.0617C9.11292 12.1546 9.05816 12.2808 9.05493 12.4134V18.1409C9.05855 18.2734 9.11343 18.3993 9.20801 18.4922C9.3026 18.585 9.42951 18.6375 9.56204 18.6387H18.438C18.5706 18.6375 18.6975 18.585 18.7921 18.4922C18.8867 18.3993 18.9415 18.2734 18.9452 18.1409V12.4134C18.9419 12.2808 18.8872 12.1546 18.7925 12.0617C18.6978 11.9688 18.5707 11.9164 18.438 11.9156ZM16.0285 11.9156H11.9778V9.67404C11.9834 9.09758 12.212 8.54567 12.6156 8.13404C12.7907 7.9385 13.005 7.78208 13.2447 7.67499C13.4843 7.56791 13.7438 7.51256 14.0063 7.51256C14.2687 7.51256 14.5282 7.56791 14.7679 7.67499C15.0075 7.78208 15.2218 7.9385 15.3969 8.13404C15.4855 8.23035 15.5651 8.33448 15.6349 8.44515C15.8864 8.80708 16.026 9.23497 16.0363 9.67559L16.0285 11.9156Z" fill="white"/>
<path opacity="0.15" d="M9.56351 11.9125H18.438C18.5581 11.9142 18.6738 11.9583 18.7646 12.0369L9.23684 18.5111C9.18094 18.4659 9.13576 18.4088 9.10456 18.3439C9.07336 18.2791 9.05691 18.2082 9.0564 18.1363V12.4118C9.05923 12.2789 9.11381 12.1524 9.20852 12.0591C9.30323 11.9659 9.43059 11.9133 9.56351 11.9125Z" fill="#B3B3B3"/>
<path opacity="0.09" d="M18.4379 11.9125H9.56193C9.44232 11.9146 9.32725 11.9586 9.23682 12.0369L18.763 18.5111C18.8191 18.4659 18.8646 18.4089 18.896 18.3441C18.9275 18.2793 18.9442 18.2083 18.945 18.1363V12.4118C18.9418 12.279 18.8871 12.1527 18.7925 12.0596C18.6979 11.9664 18.5707 11.9136 18.4379 11.9125Z" fill="#A3A3A3"/>
<defs>
<linearGradient id="paint0_linear_74_44655" x1="14" y1="26.1256" x2="14" y2="1.87451" gradientUnits="userSpaceOnUse">
<stop stop-color="#5E9624"/>
<stop offset="0.321" stop-color="#639D26"/>
<stop offset="0.794" stop-color="#6FB12A"/>
<stop offset="0.999" stop-color="#76BC2D"/>
</linearGradient>
</defs>
</svg>
