<svg width="28" height="28" viewBox="0 0 28 28" fill="none" xmlns="http://www.w3.org/2000/svg">
<path fill-rule="evenodd" clip-rule="evenodd" d="M14.2917 1.75C7.35086 1.75 1.75 7.35127 1.75 14.2926C1.75 19.7723 5.28093 24.5214 10.2734 26.1041C11.0044 26.2262 11.2476 25.8609 11.2476 25.4956V23.4255C7.71663 24.1561 6.98561 21.7207 6.98561 21.7207C6.3772 20.2591 5.6467 19.8938 5.6467 19.8938C4.55043 19.1633 5.76828 19.1633 5.76828 19.1633C6.98561 19.2849 7.71663 20.5028 7.71663 20.5028C8.81238 22.4513 10.6386 21.8423 11.3697 21.5986C11.4912 20.746 11.8565 20.2591 12.2217 19.8938C9.29973 19.4065 6.3772 18.3106 6.3772 13.562C6.3772 12.2225 6.86403 11.1267 7.71663 10.1519C7.47296 9.90873 7.10771 8.69079 7.71663 6.98599C7.71663 6.98599 8.81238 6.62071 11.126 8.32551C12.1002 8.08182 13.1959 7.96023 14.2917 7.96023C15.3874 7.96023 16.3616 8.08182 17.4573 8.32551C19.893 6.7423 20.8667 6.98599 20.8667 6.98599C21.5977 8.69079 21.1104 10.0303 20.9888 10.274C21.8409 11.1267 22.3282 12.2225 22.3282 13.6836C22.3282 18.4327 19.4057 19.5286 16.6053 19.8938C17.0921 20.2591 17.4573 20.9897 17.4573 22.2076V25.6172C17.4573 25.9825 17.701 26.3478 18.3099 26.2262C23.3024 24.5214 26.8333 19.8938 26.8333 14.4142C26.8333 7.35127 21.2325 1.75 14.2917 1.75Z" fill="black"/>
</svg>
