<svg width="28" height="28" viewBox="0 0 28 28" fill="none" xmlns="http://www.w3.org/2000/svg">
<path d="M8.29867 2.1387C8.47328 1.62129 8.95849 1.27295 9.50457 1.27295H17.4999L9.20122 25.8618C9.02659 26.3792 8.54138 26.7275 7.99532 26.7275H1.77274C0.902028 26.7275 0.288408 25.8727 0.566845 25.0478L8.29867 2.1387Z" fill="url(#paint0_linear_74_44639)"/>
<path d="M21.0805 17.8182H8.47977C7.95032 17.8182 7.6947 18.4667 8.08175 18.8279L16.1786 26.385C16.4143 26.6049 16.7246 26.7274 17.0469 26.7274H24.1816L21.0805 17.8182Z" fill="#0078D4"/>
<path d="M9.50457 1.27295C8.95849 1.27295 8.47328 1.62129 8.29867 2.1387L0.566845 25.0478C0.288408 25.8727 0.902028 26.7275 1.77274 26.7275H7.99532C8.54138 26.7275 9.02659 26.3792 9.20122 25.8618L10.7383 21.3073L16.1785 26.3848C16.4141 26.6049 16.7245 26.7272 17.0469 26.7272H24.1816L21.0803 17.8181H11.916L17.4999 1.27295H9.50457Z" fill="url(#paint1_linear_74_44639)"/>
<path d="M19.7012 2.13856C19.5266 1.62117 19.0415 1.27283 18.4953 1.27283H9.54541H9.58624C10.1323 1.27283 10.6175 1.62117 10.7921 2.13856L18.5239 25.0477C18.8024 25.8726 18.1887 26.7274 17.3181 26.7274H17.1818H26.2272C27.0978 26.7274 27.7115 25.8726 27.4331 25.0477L19.7012 2.13856Z" fill="url(#paint2_linear_74_44639)"/>
<defs>
<linearGradient id="paint0_linear_74_44639" x1="9.45009" y1="2.15402" x2="1.14818" y2="26.6799" gradientUnits="userSpaceOnUse">
<stop stop-color="#114A8B"/>
<stop offset="1" stop-color="#0669BC"/>
</linearGradient>
<linearGradient id="paint1_linear_74_44639" x1="16.0847" y1="17.821" x2="14.1663" y2="18.4697" gradientUnits="userSpaceOnUse">
<stop stop-opacity="0.3"/>
<stop offset="0.0711768" stop-opacity="0.2"/>
<stop offset="0.321031" stop-opacity="0.1"/>
<stop offset="0.623053" stop-opacity="0.05"/>
<stop offset="1" stop-opacity="0"/>
</linearGradient>
<linearGradient id="paint2_linear_74_44639" x1="14.7134" y1="2.15395" x2="23.8262" y2="26.4329" gradientUnits="userSpaceOnUse">
<stop stop-color="#3CCBF4"/>
<stop offset="1" stop-color="#2892DF"/>
</linearGradient>
</defs>
</svg>
