<svg width="28" height="28" viewBox="0 0 28 28" fill="none" xmlns="http://www.w3.org/2000/svg">
<g clip-path="url(#clip0_46_14066)">
<path d="M0.563111 4.88133C0.252 4.88133 0 4.62933 0 4.31978V0.561556C0 0.252 0.252 0 0.563111 0H4.088C4.39911 0 4.65111 0.252 4.65111 0.561556C4.65111 0.871111 4.39911 1.12311 4.088 1.12311H1.12622V4.31667C1.12622 4.62622 0.875778 4.87978 0.564667 4.87978C0.564667 4.87978 0.564667 4.88133 0.563111 4.88133ZM28 4.31978V0.561556C28 0.252 27.748 0 27.4369 0H23.912C23.6009 0 23.3489 0.252 23.3489 0.561556C23.3489 0.871111 23.6009 1.12311 23.912 1.12311H26.8738V4.31667C26.8738 4.62622 27.1258 4.87822 27.4369 4.87822C27.748 4.87822 27.9984 4.62622 28 4.31667V4.31978ZM4.65111 27.4384C4.65111 27.1289 4.39911 26.8769 4.088 26.8769H1.12622V23.6833C1.12622 23.3738 0.874222 23.1218 0.563111 23.1218C0.252 23.1218 0 23.3738 0 23.6833V27.44C0 27.7496 0.253556 28 0.563111 28H4.088C4.39911 28 4.65111 27.748 4.65111 27.4384ZM28 27.44V23.6833C28 23.3738 27.748 23.1218 27.4369 23.1218C27.1258 23.1218 26.8753 23.3738 26.8738 23.6833V26.8769H23.912C23.6009 26.8769 23.3489 27.1289 23.3489 27.44C23.3489 27.7496 23.6009 28.0016 23.912 28.0016H27.4369C27.7464 28.0016 27.9984 27.7511 28 27.4416V27.44Z" fill="#76BC2D"/>
<path d="M21.5661 12.5176C21.5661 18.4629 14.3686 23.2618 12.8052 24.2527C12.6186 24.3553 12.393 24.3553 12.2048 24.2527C10.5357 23.184 3.31323 18.3851 3.31323 12.5176V5.26711C3.31323 4.96067 3.55434 4.70711 3.86079 4.69311C9.46701 4.536 8.1899 2.086 12.3883 2.086C16.5868 2.086 15.2832 4.53755 20.8895 4.69311C21.1959 4.70711 21.437 4.95911 21.437 5.26711L21.5677 12.516L21.5661 12.5176Z" fill="#0078D4"/>
<path d="M12.5066 23.1202C5.22189 18.354 4.427 14.1276 4.427 12.5176V5.78512C7.34056 5.62023 8.51034 4.79423 9.46078 4.12378C10.2214 3.58712 10.7721 3.19978 12.3868 3.19978C14.0014 3.19978 14.5443 3.58712 15.2988 4.12223C16.243 4.79267 17.4066 5.61867 20.331 5.78512L20.4523 12.5362C20.4523 13.8071 19.8737 18.3431 12.505 23.1202H12.5066Z" fill="url(#paint0_linear_46_14066)"/>
<path opacity="0.7" d="M18.2544 6.73245H12.9049C12.7837 6.73245 12.6855 6.83065 12.6855 6.95179V7.58801C12.6855 7.70914 12.7837 7.80734 12.9049 7.80734H18.2544C18.3756 7.80734 18.4738 7.70914 18.4738 7.58801V6.95179C18.4738 6.83065 18.3756 6.73245 18.2544 6.73245Z" fill="white"/>
<path opacity="0.6" d="M18.2544 8.93201H12.9049C12.7837 8.93201 12.6855 9.03021 12.6855 9.15134V9.78756C12.6855 9.9087 12.7837 10.0069 12.9049 10.0069H18.2544C18.3756 10.0069 18.4738 9.9087 18.4738 9.78756V9.15134C18.4738 9.03021 18.3756 8.93201 18.2544 8.93201Z" fill="white"/>
<path opacity="0.3" d="M13.1414 15.5291H6.62363C6.5025 15.5291 6.4043 15.6273 6.4043 15.7485V16.3847C6.4043 16.5058 6.5025 16.604 6.62363 16.604H13.1414C13.2625 16.604 13.3607 16.5058 13.3607 16.3847V15.7485C13.3607 15.6273 13.2625 15.5291 13.1414 15.5291Z" fill="white"/>
<path opacity="0.4" d="M18.2561 13.3311H6.62363C6.5025 13.3311 6.4043 13.4293 6.4043 13.5505V14.1867C6.4043 14.3078 6.5025 14.406 6.62363 14.406H18.2561C18.3772 14.406 18.4754 14.3078 18.4754 14.1867V13.5505C18.4754 13.4293 18.3772 13.3311 18.2561 13.3311Z" fill="white"/>
<path opacity="0.5" d="M17.1936 11.1316H6.62207C6.5018 11.1316 6.4043 11.2291 6.4043 11.3493V11.9887C6.4043 12.1089 6.5018 12.2065 6.62207 12.2065H17.1936C17.3139 12.2065 17.4114 12.1089 17.4114 11.9887V11.3493C17.4114 11.2291 17.3139 11.1316 17.1936 11.1316Z" fill="white"/>
<path d="M6.58785 6.73245H11.6932C11.7943 6.73245 11.8767 6.80401 11.8767 6.89112V9.84823C11.8767 9.9369 11.7943 10.0069 11.6932 10.0069H6.58785C6.48674 10.0069 6.4043 9.93534 6.4043 9.84823V6.89112C6.4043 6.80245 6.48674 6.73245 6.58785 6.73245Z" fill="url(#paint1_linear_46_14066)"/>
<path d="M19.3652 25.8922C22.3223 25.8922 24.7194 23.4951 24.7194 20.538C24.7194 17.5809 22.3223 15.1838 19.3652 15.1838C16.4082 15.1838 14.011 17.5809 14.011 20.538C14.011 23.4951 16.4082 25.8922 19.3652 25.8922Z" fill="#76BC2D"/>
<path d="M18.8161 22.3316L18.3245 22.8231C18.2405 22.9071 18.1052 22.9071 18.0212 22.8231L16.0674 20.8693C15.9834 20.7853 15.9834 20.65 16.0674 20.566L16.4081 20.2253C16.4921 20.1413 16.6274 20.1413 16.7114 20.2253L18.8161 22.33V22.3316Z" fill="white"/>
<path d="M18.0306 22.8293L17.5391 22.3378L22.0315 17.8453C22.1155 17.7613 22.2508 17.7613 22.3348 17.8453L22.6755 18.186C22.7595 18.27 22.7595 18.4053 22.6755 18.4893L18.334 22.8309C18.25 22.9149 18.1146 22.9149 18.0306 22.8309V22.8293Z" fill="#F0F0F0"/>
</g>
<defs>
<linearGradient id="paint0_linear_46_14066" x1="12.4397" y1="23.1202" x2="12.4397" y2="3.19978" gradientUnits="userSpaceOnUse">
<stop stop-color="#0078D4"/>
<stop offset="0.82" stop-color="#5EA0EF"/>
</linearGradient>
<linearGradient id="paint1_linear_46_14066" x1="9.14052" y1="6.73245" x2="9.14052" y2="10.0069" gradientUnits="userSpaceOnUse">
<stop stop-color="white" stop-opacity="0.7"/>
<stop offset="1" stop-color="white" stop-opacity="0.6"/>
</linearGradient>
<clipPath id="clip0_46_14066">
<rect width="28" height="28" fill="white"/>
</clipPath>
</defs>
</svg>
