<svg width="29" height="28" viewBox="0 0 29 28" fill="none" xmlns="http://www.w3.org/2000/svg">
<path d="M0.585449 0.585449V13.2802H13.2786V0.585449H0.585449ZM11.0448 11.0465H2.8175V2.81919H11.0448V11.0465Z" fill="url(#paint0_linear_241_47516)"/>
<path d="M0.585449 27.4138H13.2786V14.7207H0.585449V27.4138ZM2.8175 16.9544H11.0448V25.1901H2.8175V16.9544Z" fill="url(#paint1_linear_241_47516)"/>
<path d="M14.7241 0.585449V13.2802H27.4189V0.585449H14.7241ZM25.1852 11.0465H16.9494V2.81919H25.1852V11.0465Z" fill="url(#paint2_linear_241_47516)"/>
<path d="M14.7241 27.4138H27.4189V14.7207H14.7241V27.4138ZM16.9579 16.9544H25.1936V25.1901H16.9579V16.9544Z" fill="url(#paint3_linear_241_47516)"/>
<path d="M22.9039 13.2421C22.9039 13.1816 22.9039 13.1194 22.9039 13.0539C22.8686 11.5496 22.3207 9.75957 22.0837 8.76287C21.8467 7.76618 21.2736 6.19471 21.2736 6.19471C21.2736 6.19471 20.9929 6.78295 20.8198 7.05524C20.6719 7.28886 20.4382 7.64856 20.3744 7.74605C18.9215 6.26878 17.0007 5.34192 14.9402 5.12388C12.8797 4.90584 10.8075 5.41013 9.07759 6.5506C7.34771 7.69106 6.0676 9.39687 5.45601 11.3765C4.84443 13.3562 4.93934 15.4868 5.72452 17.4043C6.5097 19.3218 7.93642 20.907 9.76085 21.8892C11.5853 22.8713 13.6942 23.1894 15.7271 22.789C17.76 22.3886 19.5908 21.2946 20.9066 19.694C22.2224 18.0935 22.9414 16.0856 22.9409 14.0136C22.9375 13.7547 22.9258 13.4976 22.9039 13.2421Z" fill="#5FB92D"/>
<path d="M8.62265 20.9919C9.05336 20.9919 9.40252 20.6427 9.40252 20.212C9.40252 19.7813 9.05336 19.4321 8.62265 19.4321C8.19193 19.4321 7.84277 19.7813 7.84277 20.212C7.84277 20.6427 8.19193 20.9919 8.62265 20.9919Z" fill="white"/>
<path d="M9.2242 18.948C9.2242 18.948 11.2075 18.553 12.7975 18.1076C14.3875 17.6622 15.9657 16.9664 17.0666 16.0688C18.1675 15.1713 19.0499 14.22 19.376 13.6905C19.7029 13.1721 20.0025 12.6368 20.2735 12.0871C20.3113 12.007 20.3357 11.9213 20.3458 11.8333C20.1788 12.5097 19.9539 13.1704 19.6735 13.8082L19.292 14.5797C19.292 14.5797 18.3961 16.0201 17.5893 16.6991C16.7826 17.3781 15.722 18.3933 13.1219 19.2539C10.5217 20.1144 10.3503 20.143 10.3503 20.143H15.8968C16.8935 20.143 18.7054 19.9245 19.892 19.2269C21.0786 18.5294 21.9576 17.0167 22.2568 15.6974C22.5363 14.3247 22.5699 12.9134 22.356 11.5291C22.1576 10.5055 21.5778 8.30372 21.4685 7.91379C21.3593 7.52385 21.1509 6.98096 21.1509 6.98096C20.7505 7.65239 20.2665 8.27025 19.7105 8.8197C18.835 9.63816 17.8023 10.27 16.675 10.6769C15.606 11.0669 14.3219 11.1492 13.1874 11.1812C12.0529 11.2131 10.7503 11.4081 9.70826 12.1157C8.66618 12.8233 8.24936 13.5376 7.85942 14.3527C7.46948 15.1679 7.61403 16.8084 7.85942 17.4521C8.04167 17.9331 8.36287 18.3491 8.78215 18.6471C8.92145 18.7587 9.06924 18.8593 9.2242 18.948V18.948Z" fill="white"/>
<defs>
<linearGradient id="paint0_linear_241_47516" x1="7.06478" y1="0.341739" x2="6.56055" y2="25.4691" gradientUnits="userSpaceOnUse">
<stop stop-color="#008BF0"/>
<stop offset="0.21" stop-color="#0085EB"/>
<stop offset="0.43" stop-color="#0081E6"/>
<stop offset="0.62" stop-color="#0375D3"/>
<stop offset="0.8" stop-color="#0062C6"/>
<stop offset="1" stop-color="#0050B3"/>
</linearGradient>
<linearGradient id="paint1_linear_241_47516" x1="6.79922" y1="1.00234" x2="6.9673" y2="26.3818" gradientUnits="userSpaceOnUse">
<stop stop-color="#008BF0"/>
<stop offset="0.21" stop-color="#0085EB"/>
<stop offset="0.43" stop-color="#0081E6"/>
<stop offset="0.62" stop-color="#0375D3"/>
<stop offset="0.8" stop-color="#0062C6"/>
<stop offset="1" stop-color="#0050B3"/>
</linearGradient>
<linearGradient id="paint2_linear_241_47516" x1="24.2355" y1="0.424096" x2="16.8066" y2="15.6804" gradientUnits="userSpaceOnUse">
<stop stop-color="#008BF0"/>
<stop offset="0.21" stop-color="#0085EB"/>
<stop offset="0.43" stop-color="#0081E6"/>
<stop offset="0.62" stop-color="#0375D3"/>
<stop offset="0.8" stop-color="#0062C6"/>
<stop offset="1" stop-color="#0050B3"/>
</linearGradient>
<linearGradient id="paint3_linear_241_47516" x1="21.1312" y1="1.59229" x2="21.0471" y2="27.3079" gradientUnits="userSpaceOnUse">
<stop stop-color="#008BF0"/>
<stop offset="0.21" stop-color="#0085EB"/>
<stop offset="0.43" stop-color="#0081E6"/>
<stop offset="0.62" stop-color="#0375D3"/>
<stop offset="0.8" stop-color="#0062C6"/>
<stop offset="1" stop-color="#0050B3"/>
</linearGradient>
</defs>
</svg>
