<svg width="28" height="28" viewBox="0 0 28 28" fill="none" xmlns="http://www.w3.org/2000/svg">
<g clip-path="url(#clip0_74_44644)">
<path d="M28 17.6096C27.9725 16.0943 27.409 14.6378 26.4094 13.4987C25.4098 12.3596 24.0389 11.6115 22.54 11.3874C22.4789 9.27622 21.5866 7.27459 20.0571 5.818C18.5277 4.36141 16.485 3.56772 14.3733 3.60961C12.6731 3.59222 11.0098 4.10596 9.61551 5.07917C8.22123 6.05238 7.16549 7.43652 6.59556 9.0385C4.78323 9.27154 3.11664 10.1531 1.90411 11.52C0.691572 12.887 0.0151563 14.6469 0 16.4741C0.0730119 18.5069 0.93952 20.4303 2.41378 21.8318C3.88804 23.2334 5.85272 24.0016 7.88667 23.9718H8.57111H21.3422C21.4557 23.988 21.5709 23.988 21.6844 23.9718C23.3587 23.9435 24.9557 23.2627 26.1353 22.0743C27.315 20.886 27.984 19.284 28 17.6096Z" fill="url(#paint0_linear_74_44644)"/>
<path d="M19.18 10.2519C18.6922 9.44254 17.9752 8.79614 17.1197 8.3945C16.2643 7.99286 15.309 7.85404 14.3747 7.9956C13.4403 8.13717 12.569 8.55276 11.871 9.18977C11.1729 9.82678 10.6796 10.6566 10.4534 11.5741C10.1761 12.7739 10.3593 14.034 10.9667 15.1052L7.32669 18.7919C7.21193 18.9061 7.12087 19.0418 7.05873 19.1913C6.99659 19.3408 6.9646 19.5011 6.9646 19.663C6.9646 19.8249 6.99659 19.9852 7.05873 20.1347C7.12087 20.2842 7.21193 20.4199 7.32669 20.5341C7.44072 20.6488 7.57653 20.7395 7.72612 20.8009C7.87572 20.8624 8.03609 20.8933 8.1978 20.8919C8.35977 20.8951 8.52067 20.865 8.67052 20.8035C8.82037 20.7419 8.95598 20.6502 9.06892 20.5341L12.6934 16.863C13.0874 17.092 13.5115 17.2648 13.9534 17.3763C14.8711 17.5967 15.8336 17.5411 16.7199 17.2165C17.6062 16.8919 18.3769 16.3127 18.9352 15.5517C19.4935 14.7906 19.8146 13.8816 19.8582 12.9388C19.9017 11.9959 19.6658 11.0612 19.18 10.2519ZM18.34 13.5185C18.1628 14.2481 17.7463 14.8972 17.157 15.3624C16.5678 15.8276 15.8397 16.0821 15.0889 16.0852C14.8206 16.0873 14.5534 16.0506 14.2956 15.9763C13.902 15.8877 13.5312 15.7182 13.2067 15.4785C12.8644 15.2452 12.5689 14.9497 12.3356 14.6074C12.072 14.2173 11.8929 13.7763 11.8098 13.3129C11.7268 12.8494 11.7416 12.3737 11.8534 11.9163C12.0219 11.1838 12.4335 10.53 13.0209 10.0611C13.6084 9.59225 14.3373 9.33602 15.0889 9.33409C15.3612 9.33446 15.6326 9.36577 15.8978 9.42743C16.7602 9.65567 17.4979 10.2146 17.9511 10.983C18.1812 11.3586 18.3341 11.7762 18.4009 12.2116C18.4677 12.647 18.447 13.0913 18.34 13.5185Z" fill="#F2F2F2"/>
<path d="M15.0734 16.0852C16.9205 16.0852 18.4179 14.5809 18.4179 12.7252C18.4179 10.8695 16.9205 9.36517 15.0734 9.36517C13.2264 9.36517 11.729 10.8695 11.729 12.7252C11.729 14.5809 13.2264 16.0852 15.0734 16.0852Z" fill="#83B9F9"/>
</g>
<defs>
<linearGradient id="paint0_linear_74_44644" x1="14" y1="0.560722" x2="14" y2="28.4829" gradientUnits="userSpaceOnUse">
<stop offset="0.18" stop-color="#5EA0EF"/>
<stop offset="1" stop-color="#0078D4"/>
</linearGradient>
<clipPath id="clip0_74_44644">
<rect width="28" height="28" fill="white"/>
</clipPath>
</defs>
</svg>
