<svg width="28" height="28" viewBox="0 0 28 28" fill="none" xmlns="http://www.w3.org/2000/svg">
<path d="M22.54 11.1222C22.4745 9.01443 21.5801 7.01764 20.051 5.56545C18.5219 4.11327 16.4817 3.32297 14.3733 3.36619C12.6681 3.34596 10.9989 3.85785 9.59822 4.8306C8.19749 5.80336 7.13486 7.1886 6.55822 8.79352C4.76251 9.03631 3.11334 9.91485 1.91004 11.2697C0.706744 12.6246 0.0290651 14.3659 0 16.1777C0.0537714 18.2157 0.914218 20.1491 2.39236 21.5531C3.87051 22.9572 5.84549 23.7172 7.88356 23.6662H21.4978C23.1843 23.6241 24.7924 22.945 25.9986 21.7656C27.2049 20.5862 27.9199 18.9938 28 17.3086C27.9688 15.7982 27.4031 14.3478 26.4034 13.2151C25.4037 12.0824 24.0348 11.3408 22.54 11.1222Z" fill="url(#paint0_linear_149_62175)"/>
<path d="M20.0667 17.7333V12.4444H18.6667V18.8688H22.4934V17.7333H20.0667ZM8.96006 15.1355C8.67094 15.0194 8.40292 14.8565 8.16672 14.6533C8.10405 14.5869 8.05526 14.5087 8.02321 14.4232C7.99116 14.3377 7.97649 14.2467 7.98006 14.1555C7.97559 14.0642 7.99472 13.9733 8.03559 13.8916C8.07646 13.8099 8.13769 13.74 8.21339 13.6888C8.40486 13.5568 8.63438 13.4912 8.86672 13.5022C9.42076 13.4773 9.96753 13.6358 10.4223 13.9533V12.6155C9.9253 12.4306 9.39659 12.346 8.86672 12.3666C8.25645 12.3343 7.65482 12.5219 7.17117 12.8955C6.96039 13.058 6.79124 13.2683 6.67765 13.509C6.56406 13.7497 6.50928 14.0139 6.51784 14.28C6.51784 15.0733 7.01561 15.6955 8.07339 16.1622C8.41675 16.3083 8.74069 16.4964 9.03784 16.7222C9.11064 16.7831 9.16925 16.8593 9.20955 16.9453C9.24986 17.0312 9.27089 17.125 9.27117 17.22C9.27108 17.3143 9.24845 17.4073 9.20516 17.4912C9.16187 17.5751 9.09917 17.6474 9.02228 17.7022C8.81072 17.8265 8.56733 17.886 8.32228 17.8733C7.69661 17.8681 7.09409 17.636 6.62672 17.22V18.6666C7.1405 18.9313 7.71356 19.0598 8.29117 19.04C8.94322 19.079 9.58952 18.8982 10.1267 18.5266C10.3165 18.3469 10.4617 18.1253 10.5509 17.8796C10.64 17.6338 10.6705 17.3707 10.6401 17.1111C10.6478 16.7128 10.5095 16.3254 10.2512 16.0222C9.88757 15.6395 9.44772 15.3375 8.96006 15.1355ZM17.1112 17.6088C17.449 17.0676 17.628 16.4424 17.628 15.8044C17.628 15.1664 17.449 14.5412 17.1112 14C16.8685 13.5141 16.4903 13.1089 16.0223 12.8333C15.5481 12.5645 15.0117 12.4251 14.4667 12.4288C13.8792 12.4161 13.2991 12.5611 12.7867 12.8488C12.3063 13.1166 11.9123 13.5159 11.6512 14C11.3761 14.5501 11.2374 15.1583 11.2467 15.7733C11.2497 16.3136 11.3775 16.846 11.6201 17.3288C11.8579 17.809 12.231 18.2091 12.6934 18.48C13.1631 18.7668 13.6989 18.9275 14.2489 18.9466L15.5867 20.5022H17.4689L15.5556 18.7911C16.1999 18.5978 16.7525 18.1779 17.1112 17.6088ZM15.5556 17.22C15.4139 17.3957 15.2334 17.5364 15.0283 17.6308C14.8233 17.7253 14.5991 17.771 14.3734 17.7644C14.1459 17.7723 13.9199 17.7255 13.7142 17.6281C13.5085 17.5307 13.3292 17.3854 13.1912 17.2044C12.8627 16.755 12.703 16.2043 12.7401 15.6488C12.7038 15.0935 12.8634 14.5431 13.1912 14.0933C13.3376 13.9128 13.5226 13.7674 13.7325 13.6678C13.9425 13.5682 14.1721 13.5169 14.4045 13.5177C14.6317 13.5078 14.8577 13.5553 15.0616 13.6559C15.2656 13.7565 15.4408 13.907 15.5712 14.0933C15.8777 14.5518 16.0253 15.0983 15.9912 15.6488C16.0456 16.2084 15.8904 16.7683 15.5556 17.22Z" fill="#F2F2F2"/>
<defs>
<linearGradient id="paint0_linear_149_62175" x1="15.4124" y1="24.8002" x2="11.6916" y2="3.70685" gradientUnits="userSpaceOnUse">
<stop offset="0.15" stop-color="#0078D4"/>
<stop offset="0.8" stop-color="#5EA0EF"/>
<stop offset="1" stop-color="#83B9F9"/>
</linearGradient>
</defs>
</svg>
