<svg width="28" height="28" viewBox="0 0 28 28" fill="none" xmlns="http://www.w3.org/2000/svg">
<path d="M8.29867 2.13875C8.47328 1.62134 8.95849 1.273 9.50457 1.273H17.4999L9.20122 25.8619C9.02659 26.3793 8.54138 26.7276 7.99532 26.7276H1.77274C0.902028 26.7276 0.288408 25.8728 0.566845 25.0479L8.29867 2.13875Z" fill="url(#paint0_linear_41_29908)"/>
<path d="M21.0805 17.8183H8.47977C7.95032 17.8183 7.6947 18.4668 8.08175 18.828L16.1786 26.385C16.4143 26.605 16.7246 26.7274 17.0469 26.7274H24.1816L21.0805 17.8183Z" fill="#0078D4"/>
<path d="M9.50457 1.273C8.95849 1.273 8.47328 1.62134 8.29867 2.13875L0.566845 25.0479C0.288408 25.8728 0.902028 26.7276 1.77274 26.7276H7.99532C8.54138 26.7276 9.02659 26.3793 9.20122 25.8619L10.7383 21.3074L16.1785 26.3849C16.4141 26.605 16.7245 26.7272 17.0469 26.7272H24.1816L21.0803 17.8181H11.916L17.4999 1.273H9.50457Z" fill="url(#paint1_linear_41_29908)"/>
<path d="M19.7012 2.13855C19.5266 1.62115 19.0415 1.27281 18.4953 1.27281H9.54541H9.58624C10.1323 1.27281 10.6175 1.62115 10.7921 2.13855L18.5239 25.0477C18.8024 25.8726 18.1887 26.7274 17.3181 26.7274H17.1818H26.2272C27.0978 26.7274 27.7115 25.8726 27.4331 25.0477L19.7012 2.13855Z" fill="url(#paint2_linear_41_29908)"/>
<defs>
<linearGradient id="paint0_linear_41_29908" x1="9.45009" y1="2.15407" x2="1.14818" y2="26.68" gradientUnits="userSpaceOnUse">
<stop stop-color="#114A8B"/>
<stop offset="1" stop-color="#0669BC"/>
</linearGradient>
<linearGradient id="paint1_linear_41_29908" x1="16.0847" y1="17.8211" x2="14.1663" y2="18.4697" gradientUnits="userSpaceOnUse">
<stop stop-opacity="0.3"/>
<stop offset="0.0711768" stop-opacity="0.2"/>
<stop offset="0.321031" stop-opacity="0.1"/>
<stop offset="0.623053" stop-opacity="0.05"/>
<stop offset="1" stop-opacity="0"/>
</linearGradient>
<linearGradient id="paint2_linear_41_29908" x1="14.7134" y1="2.15393" x2="23.8262" y2="26.4329" gradientUnits="userSpaceOnUse">
<stop stop-color="#3CCBF4"/>
<stop offset="1" stop-color="#2892DF"/>
</linearGradient>
</defs>
</svg>
