<svg width="48" height="48" viewBox="0 0 48 48" fill="none" xmlns="http://www.w3.org/2000/svg">
<path d="M22.4614 26.5302H14.5239C14.3963 26.5175 14.2785 26.4559 14.1951 26.358C14.1116 26.2602 14.069 26.1338 14.076 26.0052C14.0619 25.9392 14.0619 25.8711 14.076 25.8051L23.6309 1.80199C23.6618 1.71413 23.7191 1.63807 23.7949 1.58433C23.8707 1.53058 23.9612 1.5018 24.0539 1.50195H33.4346C33.4967 1.50515 33.5576 1.52063 33.6137 1.54751C33.6699 1.57439 33.7202 1.61214 33.7618 1.65859C33.8034 1.70505 33.8355 1.75929 33.8562 1.81822C33.8769 1.87716 33.8858 1.93961 33.8825 2.00202C33.9081 2.0919 33.9081 2.18718 33.8825 2.27706L22.6356 21.0795H33.5341C33.5962 21.0827 33.6571 21.0982 33.7133 21.1251C33.7694 21.152 33.8197 21.1897 33.8613 21.2362C33.9029 21.2826 33.935 21.3369 33.9557 21.3958C33.9764 21.4547 33.9854 21.5172 33.982 21.5796C33.9785 21.7066 33.9349 21.8291 33.8576 21.9296L15.7432 45.9578C15.569 46.0828 14.3497 47.383 14.9469 45.4327L22.4614 26.5302Z" fill="url(#paint0_radial_1915_132730)"/>
<path d="M15.3254 34.2993L13.8495 35.7865C13.7237 35.9133 13.5529 35.9847 13.3748 35.9849C13.1966 35.9852 13.0256 35.9143 12.8994 35.7878L1.99319 24.8592C1.74085 24.6064 1.59881 24.2631 1.59831 23.905C1.59782 23.547 1.7389 23.2033 1.99053 22.9498L3.46641 21.4626L15.3417 33.3623C15.4602 33.4902 15.5248 33.6593 15.5217 33.8341C15.5187 34.0089 15.4483 34.1756 15.3254 34.2993Z" fill="#50E6FF"/>
<path d="M13.6346 12.1827L15.097 13.6481C15.2232 13.7745 15.2942 13.9461 15.2944 14.1251C15.2947 14.3042 15.2241 14.476 15.0983 14.6028L3.43185 26.3587L1.95184 24.8756C1.69951 24.6228 1.55747 24.2795 1.55697 23.9215C1.55647 23.5634 1.69756 23.2197 1.94919 22.9662L12.6669 12.1663C12.7306 12.102 12.8067 12.0513 12.8904 12.0171C12.9741 11.983 13.0639 11.9662 13.1542 11.9677C13.2445 11.9692 13.3337 11.9891 13.4162 12.026C13.4988 12.0629 13.573 12.1162 13.6346 12.1827Z" fill="#1490DF"/>
<path d="M44.5752 21.6021L46.0511 23.0892C46.3027 23.3428 46.4438 23.6864 46.4433 24.0445C46.4428 24.4026 46.3008 24.7458 46.0484 24.9987L35.1422 35.9273C35.016 36.0537 34.845 36.1246 34.6669 36.1244C34.4887 36.1241 34.3179 36.0528 34.1921 35.926L32.7162 34.4388C32.5904 34.312 32.5198 34.1402 32.5201 33.9611C32.5203 33.7821 32.5914 33.6105 32.7175 33.4841L44.5752 21.6021Z" fill="#50E6FF"/>
<path d="M45.9704 24.8429L44.4904 26.3259L32.8415 14.5878C32.7157 14.461 32.6452 14.2892 32.6454 14.1101C32.6457 13.9311 32.7167 13.7595 32.8429 13.633L34.3229 12.15C34.449 12.0236 34.62 11.9527 34.7982 11.9529C34.9764 11.9532 35.1472 12.0246 35.273 12.1513L45.9907 22.9512C46.2423 23.2047 46.3834 23.5484 46.3829 23.9064C46.3824 24.2645 46.2404 24.6078 45.988 24.8606L45.9704 24.8429Z" fill="#1490DF"/>
<defs>
<radialGradient id="paint0_radial_1915_132730" cx="0" cy="0" r="1" gradientUnits="userSpaceOnUse" gradientTransform="translate(24.0853 23.6859) scale(15.6317 17.7293)">
<stop offset="0.2" stop-color="#FFD70F"/>
<stop offset="0.44" stop-color="#FFCB12"/>
<stop offset="0.87" stop-color="#FEAC19"/>
<stop offset="1" stop-color="#FEA11B"/>
</radialGradient>
</defs>
</svg>
