<svg width="48" height="48" viewBox="0 0 48 48" fill="none" xmlns="http://www.w3.org/2000/svg">
<path d="M18.4796 13.9429C9.53512 13.9429 2.27734 11.3997 2.27734 8.09351V39.1461C2.27734 42.3505 9.40734 44.9446 18.2496 44.9955H18.4796C27.424 44.9955 34.6818 42.4523 34.6818 39.1461V8.09351C34.6818 11.3234 27.424 13.9429 18.4796 13.9429Z" fill="url(#paint0_linear_1915_132715)"/>
<path d="M34.6818 8.09108C34.6818 11.321 27.424 13.9405 18.4796 13.9405C9.53512 13.9405 2.27734 11.321 2.27734 8.09108C2.27734 4.86121 9.53512 2.2417 18.4796 2.2417C27.424 2.2417 34.6818 4.78491 34.6818 8.09108Z" fill="#E8E8E8"/>
<path d="M30.8992 7.61299C30.8992 9.67299 25.3281 11.3261 18.4792 11.3261C11.6304 11.3261 6.11035 9.67299 6.11035 7.61299C6.11035 5.55299 11.6304 3.8999 18.4792 3.8999C25.3281 3.8999 30.8992 5.57842 30.8992 7.61299Z" fill="#50E6FF"/>
<path d="M18.4803 8.47761C15.1546 8.41113 11.8402 8.88356 8.66699 9.87637C11.8371 10.9248 15.1665 11.4153 18.5059 11.326C21.8452 11.4153 25.1747 10.9248 28.3448 9.87637C25.1552 8.87808 21.8231 8.40559 18.4803 8.47761V8.47761Z" fill="#198AB3"/>
<path d="M28.4464 29.2326V20.6365H26.0697V31.1654H32.3564V29.2326H28.4464ZM10.1741 24.9854C9.70106 24.7918 9.2613 24.5258 8.87081 24.197C8.6992 23.9624 8.62589 23.6706 8.66636 23.3832C8.6663 23.2288 8.70338 23.0767 8.77452 22.9395C8.84566 22.8024 8.94878 22.6842 9.07525 22.5948C9.39558 22.3939 9.7704 22.2962 10.1486 22.3151C11.0576 22.2836 11.953 22.542 12.7041 23.0526V20.8654C11.8862 20.5688 11.0187 20.4307 10.1486 20.4585C9.05086 20.367 7.95806 20.6842 7.08192 21.3486C6.74433 21.6261 6.47457 21.9764 6.29305 22.3729C6.11152 22.7695 6.02299 23.2019 6.03414 23.6375C6.03414 24.9346 6.85192 25.9518 8.5897 26.7148C9.14496 26.9555 9.6685 27.2629 10.1486 27.6304C10.2755 27.7251 10.3786 27.848 10.4496 27.9892C10.5205 28.1305 10.5575 28.2863 10.5575 28.4442C10.5575 28.5985 10.5205 28.7507 10.4493 28.8878C10.3782 29.025 10.2751 29.1432 10.1486 29.2326C9.80751 29.4532 9.40475 29.5601 8.99858 29.5378C7.92214 29.5495 6.88448 29.1382 6.11081 28.3933V30.7585C6.96138 31.1706 7.89966 31.3713 8.84525 31.3435C9.91116 31.3921 10.9656 31.1075 11.8608 30.5296C12.2194 30.2562 12.5065 29.9008 12.6978 29.4935C12.8891 29.0862 12.9789 28.639 12.9597 28.1899C12.9845 27.5368 12.7557 26.8993 12.3208 26.4096C11.7138 25.79 10.9823 25.3047 10.1741 24.9854V24.9854ZM23.463 28.9783C24.0402 28.0005 24.3322 26.8821 24.3064 25.7484C24.3279 24.7778 24.1085 23.8169 23.6675 22.9509C23.2685 22.1567 22.6473 21.4943 21.8786 21.0434C21.0996 20.6041 20.2184 20.3761 19.323 20.3822C18.3502 20.3651 17.3898 20.6018 16.5375 21.0689C15.7387 21.5287 15.0907 22.2088 14.6719 23.0272C14.2105 23.9323 13.9822 24.9372 14.0075 25.9518C13.9927 26.8782 14.2031 27.7943 14.6208 28.6222C15.0083 29.408 15.6106 30.0691 16.3586 30.5296C17.1301 30.9957 18.0118 31.2502 18.9141 31.2672L21.0864 33.8104H24.1275L21.0608 30.9874C22.0723 30.6167 22.922 29.9061 23.463 28.9783ZM21.0864 28.317C20.8465 28.6006 20.5472 28.8285 20.2095 28.9849C19.8718 29.1413 19.5038 29.2223 19.1314 29.2223C18.7589 29.2223 18.3909 29.1413 18.0532 28.9849C17.7155 28.8285 17.4162 28.6006 17.1764 28.317C16.6432 27.5801 16.3897 26.6791 16.4608 25.7738C16.3902 24.8647 16.6535 23.961 17.2019 23.2306C17.4315 22.9235 17.7333 22.677 18.0808 22.513C18.4283 22.3489 18.811 22.2722 19.1953 22.2896C19.5677 22.2782 19.9374 22.358 20.2716 22.5221C20.6058 22.6862 20.8944 22.9295 21.1119 23.2306C21.6154 23.9804 21.8578 24.8738 21.8019 25.7738C21.9042 26.7056 21.6486 27.6413 21.0864 28.3933V28.317Z" fill="#F2F2F2"/>
<path d="M38.8454 45.4798L39.4587 43.4707L40.6598 42.784L42.7298 43.6996L44.0587 42.3517V42.1991L43.1132 40.3934L43.6754 39.1218L45.7454 38.3843H45.9754V36.5277H45.7198L43.6754 35.9174L43.0109 34.7475L43.9054 32.6621L42.5509 31.365H42.3976L40.5832 32.2806L39.3309 31.5176L38.5132 29.2542H36.622V29.5339L36.0087 31.543L34.7054 32.1025L32.482 31.0853L31.1787 32.4332L31.3065 32.6875L32.2776 34.5695L31.7665 35.8665L29.3643 36.604V38.486H29.6454L31.6643 39.0964L32.2265 40.3934L31.2298 42.5806L32.5843 43.903L32.8143 43.7759L34.7054 42.8095L36.0087 43.3181L36.8776 45.5816H38.7432L38.8454 45.4798ZM35.7787 39.4779C35.2636 38.9754 34.9702 38.2898 34.963 37.572C34.9558 36.8542 35.2354 36.1629 35.7404 35.6503C36.2453 35.1377 36.9342 34.8457 37.6555 34.8385C38.3768 34.8314 39.0714 35.1097 39.5865 35.6122C39.8415 35.861 40.0449 36.1574 40.1848 36.4844C40.3248 36.8114 40.3987 37.1626 40.4022 37.518C40.4058 37.8735 40.339 38.2261 40.2056 38.5558C40.0722 38.8855 39.8748 39.1859 39.6248 39.4397C39.3748 39.6935 39.077 39.8959 38.7484 40.0351C38.4198 40.1744 38.0668 40.2479 37.7097 40.2515C37.3526 40.255 36.9982 40.1885 36.6669 40.0558C36.3356 39.9231 36.0338 39.7267 35.7787 39.4779V39.4779Z" fill="#B3B3B3"/>
<defs>
<linearGradient id="paint0_linear_1915_132715" x1="2.27734" y1="26.5318" x2="34.6818" y2="26.5318" gradientUnits="userSpaceOnUse">
<stop stop-color="#005BA1"/>
<stop offset="0.07" stop-color="#0060A9"/>
<stop offset="0.36" stop-color="#0071C8"/>
<stop offset="0.52" stop-color="#0078D4"/>
<stop offset="0.64" stop-color="#0074CD"/>
<stop offset="0.82" stop-color="#006ABB"/>
<stop offset="1" stop-color="#005BA1"/>
</linearGradient>
</defs>
</svg>
