<svg width="48" height="48" viewBox="0 0 48 48" fill="none" xmlns="http://www.w3.org/2000/svg">
<path d="M36.5675 33.445C36.3445 33.1725 36.2207 32.7019 36.0968 32.1817C35.9729 31.6614 35.8491 31.1165 35.428 30.7449C35.3536 30.6706 35.2545 30.621 35.1802 30.5467C35.0811 30.4972 35.0068 30.4476 34.9077 30.4228C35.5023 28.664 35.2793 26.93 34.66 25.3693C33.9416 23.4371 32.6535 21.7526 31.6874 20.6131C30.5974 19.2258 29.5322 17.9377 29.5569 16.0054C29.5817 13.0575 29.879 7.60767 24.7016 7.60767C24.5034 7.60767 24.2805 7.60767 24.0328 7.63244C18.2608 8.10311 19.7719 14.2218 19.6976 16.2532C19.5985 17.7395 19.2765 18.9285 18.2608 20.3901C17.047 21.8269 15.3377 24.1555 14.545 26.5831C14.1734 27.7227 13.9753 28.887 14.1487 30.0017C14.0991 30.0512 14.0496 30.1008 14 30.1503C13.6532 30.5219 13.3807 30.9926 13.0835 31.2899C12.811 31.5624 12.4146 31.6614 11.9935 31.8101C11.5724 31.9587 11.1017 32.1817 10.8044 32.7266C10.6806 32.9744 10.631 33.2469 10.631 33.5194C10.631 33.7671 10.6806 34.0396 10.7053 34.2873C10.7796 34.8075 10.854 35.2782 10.7549 35.625C10.4081 36.5416 10.3833 37.1856 10.6062 37.6563C10.854 38.127 11.3246 38.3252 11.8944 38.449C13.0091 38.672 14.5202 38.6224 15.6845 39.2417L15.7836 39.0435L15.7093 39.2665C16.9727 39.9353 18.2608 40.1583 19.3013 39.9353C20.0444 39.7619 20.639 39.316 20.961 38.6472C21.7537 38.6472 22.6455 38.3004 24.0575 38.2261C25.0236 38.1517 26.2127 38.5729 27.5752 38.4986C27.5999 38.6472 27.6743 38.7958 27.7238 38.9197C28.244 39.9849 29.2597 40.4803 30.3001 40.3812C31.3653 40.3069 32.4801 39.6629 33.3966 38.5976L33.2232 38.449L33.3966 38.5976C34.2637 37.5572 35.7004 37.1113 36.6418 36.5416C37.1125 36.2443 37.5088 35.8975 37.5336 35.3773C37.5831 34.8323 37.2611 34.2377 36.5675 33.445Z" fill="#202020"/>
<path d="M37.1147 35.3259C37.0899 35.6479 36.8669 35.8956 36.421 36.1433C35.554 36.6636 34.0181 37.1095 33.052 38.2985C32.2098 39.3142 31.1693 39.8592 30.2528 39.9335C29.3362 40.0078 28.5435 39.6362 28.0976 38.6949C27.8003 38.1499 27.9242 37.2829 28.1719 36.3663C28.4196 35.4497 28.7664 34.5332 28.816 33.7652C28.8655 32.7991 28.9151 31.9321 29.0885 31.288C29.2619 30.6192 29.5096 30.198 29.9555 29.9503C29.9803 29.9503 30.005 29.9255 30.0298 29.9255C30.0794 30.7678 30.5005 31.6348 31.2437 31.8082C32.0611 32.0312 33.2007 31.3375 33.6961 30.7678C33.7952 30.7678 33.8943 30.7678 33.9934 30.7678C34.4145 30.7678 34.7861 30.7926 35.1577 31.1146C35.4302 31.3623 35.5788 31.8082 35.7026 32.3284C35.8265 32.8487 35.9008 33.3936 36.2724 33.79C36.9165 34.4836 37.1394 35.0038 37.1147 35.3259Z" fill="#FFD20D"/>
<path d="M20.7132 37.7053C20.6389 38.721 20.0692 39.2908 19.1774 39.4889C18.2856 39.6871 17.0965 39.4889 15.8827 38.8696C14.545 38.176 12.9843 38.2503 11.9687 38.0274C11.4732 37.9283 11.1264 37.7549 10.9778 37.4576C10.8291 37.1604 10.8291 36.6401 11.1512 35.7731C11.2998 35.2777 11.2007 34.7327 11.1264 34.2372C11.0521 33.7418 11.0025 33.2711 11.1759 32.9491C11.3989 32.528 11.7209 32.3793 12.1173 32.2307C12.5136 32.0821 12.9843 31.983 13.3807 31.5866C13.7275 31.215 14 30.7691 14.2972 30.4223C14.545 30.1498 14.8175 29.9517 15.2138 29.9517C15.2881 29.9517 15.3624 29.9517 15.4368 29.9764C15.957 30.0507 16.4029 30.4223 16.824 31.0169L18.0626 33.2959C18.3846 33.9895 19.103 34.7575 19.6976 35.5254C20.3169 36.3181 20.7875 37.1108 20.7132 37.7053Z" fill="#FFD20D"/>
<path d="M26.9588 16.4504C26.8597 16.2522 26.6616 16.054 26.3147 15.9302C25.5964 15.6329 25.2743 15.6081 24.878 15.3356C24.2091 14.9145 23.6641 14.7659 23.2182 14.7659C22.9705 14.7659 22.7723 14.8154 22.5741 14.865C22.0292 15.0631 21.6576 15.4595 21.4346 15.6577C21.3851 15.7072 21.3355 15.732 21.1869 15.8311C21.0383 15.9302 20.8401 16.0788 20.5181 16.3265C20.2456 16.5247 20.1465 16.7972 20.2456 17.0945C20.3447 17.3917 20.6419 17.7633 21.1869 18.0853C21.5337 18.2835 21.7567 18.556 22.0292 18.779C22.153 18.8781 22.3017 18.9771 22.4751 19.0515C22.6485 19.1258 22.8466 19.1753 23.0944 19.1753C23.6641 19.2001 24.11 19.0267 24.4816 18.8285C24.8532 18.6056 25.1752 18.3578 25.5468 18.234C26.29 18.011 26.835 17.5156 27.0084 17.0697C27.0827 16.8467 27.0579 16.6486 26.9588 16.4504Z" fill="#FFD20D"/>
<path d="M25.0487 17.5676C24.4542 17.8896 23.7606 18.2612 23.0174 18.2612C22.2742 18.2612 21.6797 17.9144 21.2586 17.5923C21.0604 17.4189 20.887 17.2703 20.7384 17.1464C20.5154 16.973 20.5402 16.7253 20.6393 16.7253C20.7879 16.7501 20.8127 16.9483 20.9118 17.0473C21.0356 17.1712 21.209 17.3198 21.4072 17.4932C21.8036 17.8153 22.3485 18.1125 22.9926 18.1125C23.6615 18.1125 24.4294 17.7162 24.9001 17.4437C25.1726 17.2951 25.5194 17.0226 25.7919 16.8244C26.0148 16.6758 25.9901 16.4776 26.1635 16.5024C26.3369 16.5271 26.213 16.7005 25.9653 16.9235C25.7423 17.0969 25.3708 17.3942 25.0487 17.5676Z" fill="#202020"/>
<path d="M34.2146 30.3231C34.1403 30.3231 34.0412 30.3231 33.9669 30.3231H33.9421C34.1403 29.679 33.6944 29.1836 32.4805 28.6386C31.2172 28.0936 30.2263 28.1431 30.0529 29.2579C30.0529 29.3074 30.0281 29.3817 30.0281 29.4313C29.929 29.4561 29.8299 29.5056 29.7556 29.5551C29.1611 29.8772 28.839 30.4717 28.6656 31.1901C28.4922 31.9085 28.4427 32.7755 28.3931 33.7416C28.3684 34.2371 28.1702 34.9059 27.9472 35.5996C25.8911 37.0611 23.0423 37.7052 20.6147 36.0455C20.4413 35.7977 20.2679 35.5252 20.0697 35.2775C19.9458 35.1289 19.822 34.9555 19.6981 34.8068C19.9458 34.8068 20.1688 34.7573 20.3174 34.683C20.5404 34.5839 20.689 34.4353 20.7633 34.2371C20.9119 33.8407 20.7633 33.271 20.2926 32.6269C19.822 31.9828 19.0293 31.2644 17.8402 30.546C16.9732 30.001 16.5025 29.357 16.2548 28.6386C16.0318 27.9202 16.0566 27.1522 16.23 26.3843C16.5768 24.9227 17.4191 23.486 17.964 22.5942C18.1127 22.4951 18.0136 22.7923 17.4191 23.9319C16.8741 24.9723 15.8584 27.3504 17.2457 29.2083C17.2952 27.8954 17.5925 26.5329 18.1375 25.2696C18.9054 23.5107 20.5156 20.4885 20.6642 18.0609C20.7385 18.1104 20.9615 18.259 21.0606 18.3086C21.3578 18.482 21.5808 18.7297 21.8781 18.9774C22.1753 19.2004 22.5221 19.3986 23.0671 19.4481C23.1167 19.4481 23.1662 19.4481 23.2157 19.4481C23.7855 19.4481 24.2066 19.2747 24.5782 19.0517C24.9746 18.8288 25.2966 18.5811 25.5939 18.482C26.238 18.2838 26.7334 17.937 27.0307 17.5159C27.5261 19.4729 28.6656 22.2721 29.4088 23.6346C29.8051 24.353 30.5731 25.9136 30.9199 27.7715C31.1428 27.7715 31.3658 27.7963 31.6135 27.8706C32.5053 25.5916 30.8703 23.1144 30.1272 22.4455C29.8299 22.1483 29.8051 22.0244 29.9538 22.0244C30.7713 22.7428 31.8117 24.1796 32.208 25.7898C32.3815 26.5329 32.431 27.3009 32.2328 28.0688C32.3319 28.1184 32.431 28.1431 32.5053 28.1927C33.9421 28.8863 34.4623 29.5056 34.2146 30.3231Z" fill="white"/>
<path d="M27.0307 14.1946C27.0307 14.591 26.9564 14.913 26.8325 15.2351C26.7582 15.4333 26.6591 15.5819 26.5352 15.7305C26.4857 15.7058 26.4609 15.681 26.4114 15.681C26.2627 15.6314 26.1389 15.5571 26.015 15.5323C25.8911 15.4828 25.8168 15.458 25.7177 15.4333C25.7921 15.3589 25.9159 15.2599 25.9655 15.136C26.0398 14.9626 26.0646 14.7644 26.0893 14.5662V14.5415C26.0893 14.3433 26.0646 14.1699 26.015 13.9965C25.9655 13.7983 25.8664 13.6744 25.7673 13.5753C25.6434 13.4763 25.5443 13.4267 25.3957 13.4019C25.3957 13.4019 25.3957 13.4019 25.3709 13.4019C25.2471 13.4019 25.1232 13.4515 25.0241 13.5506C24.9003 13.6497 24.8259 13.7735 24.7269 13.9717C24.6525 14.1451 24.6278 14.3433 24.603 14.5415V14.5662C24.603 14.6901 24.603 14.7892 24.6278 14.8883C24.3553 14.7644 24.0332 14.6653 23.7855 14.6158C23.7607 14.5167 23.7607 14.4176 23.7607 14.2937V14.269C23.7607 13.8726 23.8103 13.5506 23.9589 13.2285C24.1076 12.8817 24.281 12.6588 24.5535 12.4606C24.8012 12.2624 25.0737 12.1633 25.3709 12.1633H25.3957C25.693 12.1633 25.9407 12.2624 26.1884 12.4358C26.4609 12.634 26.6343 12.857 26.7829 13.2038C26.9316 13.5258 27.0059 13.8478 27.0059 14.2194C27.0307 14.1946 27.0307 14.1946 27.0307 14.1946Z" fill="white"/>
<path d="M22.5958 14.5916C22.5462 14.5916 22.5215 14.6163 22.4719 14.6163C22.2737 14.6907 22.1003 14.765 21.9269 14.8641C21.9517 14.765 21.9517 14.6411 21.9269 14.5173C21.9269 14.5173 21.9269 14.5173 21.9269 14.4925C21.9021 14.3191 21.8774 14.1952 21.8278 14.0466C21.7783 13.898 21.704 13.7989 21.6049 13.7245C21.5306 13.6502 21.4315 13.6255 21.3572 13.6255H21.3324C21.2333 13.6255 21.159 13.675 21.0847 13.7741C21.0104 13.8732 20.9608 13.9723 20.9113 14.1457C20.8617 14.2943 20.8617 14.4429 20.8865 14.6163C20.8865 14.6163 20.8865 14.6163 20.8865 14.6411C20.9113 14.8145 20.936 14.9384 20.9856 15.087C21.0351 15.2356 21.1094 15.3347 21.2085 15.4091C21.2333 15.4338 21.2333 15.4338 21.2581 15.4338C21.159 15.5081 21.1094 15.5577 21.0104 15.632C20.9608 15.6815 20.9113 15.7063 20.8369 15.7559C20.6883 15.6072 20.5645 15.4338 20.4654 15.1861C20.3415 14.9136 20.2672 14.6163 20.2672 14.2943C20.2424 13.9723 20.292 13.675 20.3663 13.3777C20.4654 13.0805 20.5892 12.8575 20.7626 12.6841C20.936 12.5107 21.1094 12.4116 21.3324 12.4116C21.3572 12.4116 21.3572 12.4116 21.3819 12.4116C21.5801 12.4116 21.7535 12.4859 21.9269 12.6098C22.1251 12.7584 22.2737 12.9566 22.3976 13.2539C22.5215 13.5264 22.5958 13.8236 22.5958 14.1457C22.5958 14.3191 22.5958 14.4677 22.5958 14.5916Z" fill="white"/>
<path d="M23.5855 15.3837C23.6102 15.458 23.7341 15.458 23.8084 15.4828C23.8827 15.5075 23.9323 15.5818 24.0066 15.5818C24.0809 15.5818 24.18 15.5571 24.2048 15.4828C24.2048 15.3837 24.0809 15.3341 24.0066 15.3094C23.9075 15.2598 23.7589 15.235 23.6598 15.3094C23.5855 15.3341 23.5607 15.3589 23.5855 15.3837Z" fill="#202020"/>
<path d="M22.8175 15.3837C22.7928 15.458 22.6689 15.458 22.5946 15.4828C22.5203 15.5075 22.4707 15.5818 22.3964 15.5818C22.3221 15.5818 22.223 15.5571 22.1982 15.4828C22.1982 15.3837 22.3221 15.3341 22.3964 15.3094C22.4955 15.2598 22.6441 15.235 22.7432 15.3094C22.7928 15.3341 22.8175 15.3589 22.8175 15.3837Z" fill="#202020"/>
</svg>
