<svg width="48" height="48" viewBox="0 0 48 48" fill="none" xmlns="http://www.w3.org/2000/svg">
<path d="M39.0923 12.7105C38.7772 7.04203 33.9172 2.7015 28.2373 3.01607C26.7026 3.10104 25.2065 3.52768 23.8586 4.26471C22.5106 5.00174 21.3451 6.03048 20.4473 7.27552C16.8863 4.52433 11.7648 5.17496 9.00799 8.72874C8.24916 9.70696 7.7238 10.845 7.47184 12.0562C7.21988 13.2675 7.24796 14.5202 7.55394 15.719C3.65708 17.4788 1.92735 22.0577 3.69055 25.9469C4.30415 27.3003 5.29557 28.4486 6.54613 29.2543C7.79669 30.0599 9.25341 30.4889 10.7419 30.4898H36.9727C41.9622 30.4859 46.0038 26.4461 46 21.4666C45.9984 19.4455 45.3164 17.4835 44.0635 15.8956C42.8106 14.3077 41.0594 13.186 39.091 12.7105H39.0923Z" fill="white"/>
<path opacity="0.6" d="M39.0923 12.7105C38.7772 7.04203 33.9172 2.7015 28.2373 3.01607C26.7026 3.10104 25.2065 3.52768 23.8586 4.26471C22.5106 5.00174 21.3451 6.03048 20.4473 7.27552C16.8863 4.52433 11.7648 5.17496 9.00799 8.72874C8.24916 9.70696 7.7238 10.845 7.47184 12.0562C7.21988 13.2675 7.24796 14.5202 7.55394 15.719C3.65708 17.4788 1.92735 22.0577 3.69055 25.9469C4.30415 27.3003 5.29557 28.4486 6.54613 29.2543C7.79669 30.0599 9.25341 30.4889 10.7419 30.4898H36.9727C41.9622 30.4859 46.0038 26.4461 46 21.4666C45.9984 19.4455 45.3164 17.4835 44.0635 15.8956C42.8106 14.3077 41.0594 13.186 39.091 12.7105H39.0923Z" fill="#25A8E0"/>
<path d="M14.1408 21.8726C13.9119 21.8727 13.6923 21.9635 13.5304 22.1251C13.3685 22.2867 13.2775 22.5058 13.2773 22.7343V45.1383C13.2775 45.3668 13.3685 45.586 13.5304 45.7475C13.6923 45.9091 13.9119 46 14.1408 46.0001H34.8626C35.0915 46 35.3111 45.9091 35.473 45.7475C35.6349 45.586 35.7259 45.3668 35.726 45.1383V22.7343C35.7259 22.5058 35.6349 22.2867 35.473 22.1251C35.3111 21.9635 35.0915 21.8727 34.8626 21.8726H14.1408Z" fill="#672A7B"/>
<path opacity="0.15" d="M14.1408 21.8726C13.9119 21.8727 13.6923 21.9635 13.5304 22.1251C13.3685 22.2867 13.2775 22.5058 13.2773 22.7343V45.1383C13.2775 45.3668 13.3685 45.586 13.5304 45.7475C13.6923 45.9091 13.9119 46 14.1408 46.0001H16.7313L32.2736 21.8726H14.1408Z" fill="white"/>
<path d="M22.7741 21.8729V15.8409H20.1836L24.5011 9.80859L28.8186 15.8409H26.2281V21.8729H22.7741Z" fill="white"/>
<path opacity="0.3" d="M31.4098 24.4578H15.8672V43.4159H33.1367V24.4578H31.4098ZM21.0481 41.6923H17.5942V26.1813H21.0481V41.6923ZM26.2291 41.6923H22.7751V26.1813H26.2304L26.2291 41.6923ZM31.4101 41.6923H27.9559V26.1813H31.4099L31.4101 41.6923Z" fill="#B92025"/>
<path d="M31.4098 24.4578H15.8672V43.4159H33.1367V24.4578H31.4098ZM21.0481 41.6923H17.5942V26.1813H21.0481V41.6923ZM26.2291 41.6923H22.7751V26.1813H26.2304L26.2291 41.6923ZM31.4101 41.6923H27.9559V26.1813H31.4099L31.4101 41.6923Z" fill="white"/>
</svg>
