<svg width="49" height="48" viewBox="0 0 49 48" fill="none" xmlns="http://www.w3.org/2000/svg">
<path d="M44.166 37.0321C43.229 36.8191 42.2495 36.6913 41.2699 36.6913C39.5662 36.6913 38.033 36.9895 36.883 37.458C36.7552 37.5006 36.67 37.6709 36.67 37.7987C36.67 37.8413 36.67 37.9265 36.7126 37.9691C36.8404 38.3524 36.6275 38.7783 35.5201 39.0338C33.9016 39.3746 32.8369 41.0782 32.2832 41.6319C31.6017 42.2707 29.6425 42.6967 29.9407 42.3133C30.1536 42.0152 31.048 41.0356 31.6017 40.0134C32.0702 39.0764 32.4961 38.8209 33.0924 37.9265C33.2628 37.6709 33.9442 36.7765 34.1146 36.0525C34.3275 35.371 34.2424 34.4766 34.3275 34.0933C34.4553 33.5822 34.9238 32.4322 34.9664 31.7934C35.009 31.4526 33.4331 32.3045 32.7091 32.3045C31.985 32.3045 31.261 31.8786 30.6221 31.836C29.8129 31.7934 29.3018 32.4748 28.5778 32.3471C28.1519 32.2619 27.8111 31.9211 27.0871 31.8786C26.0649 31.836 24.7872 32.4322 22.4021 32.3896C20.0596 32.3045 17.8874 29.4509 17.6319 28.9824C17.2912 28.4287 16.8653 28.4287 16.3968 28.8546C15.9283 29.2805 15.3746 28.9398 15.2042 28.6416C14.8635 28.1306 14.0543 26.5973 12.7765 26.2566C11.0303 25.7881 10.1359 27.2361 10.2637 28.3435C10.3914 29.4935 11.1155 29.8342 11.4562 30.4305C11.7969 31.0267 11.9673 31.4526 12.6062 31.7082C13.0747 31.9211 13.245 32.1767 13.1172 32.56C12.9895 32.9007 12.521 32.9859 12.2228 32.9859C11.5414 33.0285 11.0729 32.8156 10.7322 32.6026C10.3488 32.3471 10.0081 32.0063 9.66738 31.4101C9.28406 30.7286 8.6452 30.4731 7.87856 30.4731C7.53784 30.4731 7.19711 30.5582 6.89897 30.7286C5.74902 31.3249 4.38611 31.6656 2.89542 31.6656H1.23438C4.4287 41.1634 13.4154 47.9779 23.9779 47.9779C32.4535 47.9779 39.8644 43.6337 44.166 37.0321Z" fill="white"/>
<path d="M44.1668 37.033C43.2298 36.8201 42.2502 36.6923 41.2706 36.6923C39.567 36.6923 38.0337 36.9904 36.8838 37.4589C36.756 37.5015 36.6708 37.6719 36.6708 37.7997C36.6708 37.8422 36.6708 37.9274 36.7134 37.97C36.8412 38.3533 36.6282 38.7792 35.5209 39.0348C33.9024 39.3755 32.8376 41.0792 32.2839 41.6328C31.6025 42.3143 29.6433 42.6976 29.9414 42.3143C30.1544 42.0162 31.0488 41.0366 31.6025 40.0144C32.071 39.0774 32.4969 38.8218 33.0932 37.9274C33.2635 37.6719 33.945 36.7775 34.1154 36.0534C34.3283 35.3294 34.2431 34.4776 34.3283 34.0942C34.4561 33.5832 34.9246 32.4332 34.9672 31.7943C35.0098 31.411 33.4339 32.3054 32.7099 32.3054C31.9858 32.3054 31.2618 31.8795 30.6229 31.8369C29.8137 31.7943 29.3026 32.4758 28.5785 32.348C28.1526 32.2628 27.8119 31.9221 27.0878 31.8795C26.0657 31.8369 24.7879 32.4758 22.4028 32.3906C20.0603 32.3054 17.8882 29.4518 17.6327 28.9833C17.2919 28.4296 16.866 28.4296 16.3975 28.8556C15.929 29.2815 15.3753 28.9407 15.205 28.6426C14.8642 28.1315 14.055 26.5982 12.7773 26.2575C11.0311 25.789 10.1366 27.2371 10.2644 28.3445C10.3922 29.4944 11.1162 29.8351 11.457 30.4314C11.7977 31.0277 11.9681 31.4536 12.6069 31.7092C13.0754 31.8795 13.2458 32.1777 13.118 32.561C12.9902 32.9017 12.5217 32.9869 12.2236 32.9869C11.5421 33.0295 11.0736 32.8165 10.7329 32.6036C10.3496 32.348 10.0089 32.0073 9.66815 31.411C9.28483 30.7721 8.64596 30.474 7.87933 30.474C7.5386 30.474 7.19787 30.5592 6.89973 30.7296C5.74978 31.3258 4.38687 31.7092 2.89618 31.7092H1.23514C0.42591 29.2815 0 26.6834 0 24.0002C0 10.7544 10.7329 0.0214844 24.0213 0.0214844C37.2671 0.0214844 48 10.7544 48 24.0002C48 28.813 46.5945 33.285 44.1668 37.033Z" fill="black"/>
<path d="M29.3068 34.859C29.4346 34.9868 29.6475 35.3701 29.392 35.8812C29.2642 36.1367 29.0938 36.3497 28.7957 36.5626C28.455 36.8182 27.8161 37.1589 26.8791 36.5626C26.4106 36.2645 26.368 36.1367 25.6866 36.2219C25.2181 36.2645 25.0051 35.796 25.1755 35.4127C25.3458 35.0294 26.0699 34.6886 26.9217 35.1997C27.305 35.4127 27.9439 35.9238 28.4976 35.4979C28.7105 35.3275 28.8383 35.1997 29.179 34.859L29.2216 34.8164C29.2642 34.8164 29.2642 34.8164 29.3068 34.859Z" fill="black"/>
<path d="M37.5234 17.6109C37.2679 18.4201 36.9697 19.4423 35.4364 20.209C35.2235 20.3367 35.1383 20.1238 35.2235 19.9534C35.7772 18.9738 35.9049 18.7609 36.0753 18.3776C36.2883 17.8239 36.416 17.0146 35.9475 15.3962C35.0957 12.1593 33.2217 7.815 31.8588 6.4095C30.5385 5.04659 28.1534 4.66327 25.9813 5.21695C25.172 5.42991 23.6388 6.23913 20.7426 5.60027C15.7594 4.4929 14.9928 6.96318 14.6947 8.07054C14.3965 9.17791 13.7151 12.2445 13.7151 12.2445C13.5021 13.5222 13.204 15.6943 20.9555 17.185C24.5758 17.8665 24.7461 18.8035 24.9165 19.4849C25.2146 20.6775 25.6831 21.3589 26.1942 21.7422C26.7053 22.083 26.1942 22.3811 25.6405 22.4237C24.1073 22.5941 18.4001 20.933 15.0354 19.059C12.267 17.3554 12.2244 15.8647 12.8632 14.587C8.64674 14.0759 5.5376 14.8851 4.98392 16.8869C4.00433 20.2516 12.4373 26.0439 22.0203 28.9401C32.0292 31.9641 42.3788 29.8345 43.5287 23.5311C44.0398 20.6775 41.6121 18.5479 37.5234 17.6109ZM25.0443 6.878C25.0017 6.878 24.9591 6.83541 24.9591 6.79282C24.9591 6.75022 24.9591 6.75022 25.0017 6.70763C25.5553 6.4095 26.322 6.19654 27.259 6.11136C27.5145 6.06877 27.8127 6.06877 28.0682 6.06877H28.196C29.7293 6.11136 30.9644 6.70763 30.9644 7.43168C30.9644 8.15573 29.6867 8.70941 28.1534 8.66682C27.6423 8.66682 27.1738 8.58164 26.7905 8.45386C26.7479 8.45386 26.7053 8.41127 26.7053 8.36868C26.7053 8.32609 26.7479 8.2835 26.7905 8.2835C27.7275 8.07054 28.4089 7.68723 28.3663 7.3465C28.3238 6.878 27.046 6.66504 25.5553 6.79282C25.3424 6.83541 25.2146 6.83541 25.0443 6.878ZM22.1481 11.4352C19.3797 11.6482 19.0815 11.9463 18.5704 12.5C17.8464 13.2666 16.8668 11.4778 16.8668 11.4778C16.2705 11.35 15.5891 10.413 15.9724 9.56123C16.3557 8.70941 17.0372 8.96495 17.2501 9.2205C17.5057 9.56123 18.0593 10.0723 18.7834 10.0723C19.5074 10.0723 20.3593 9.90196 21.5092 9.90196C22.7018 9.90196 23.511 10.3279 23.5536 10.7112C23.5962 11.0519 23.4684 11.35 22.1481 11.4352Z" fill="#E93442"/>
</svg>
