<svg width="48" height="48" viewBox="0 0 48 48" fill="none" xmlns="http://www.w3.org/2000/svg">
<path fill-rule="evenodd" clip-rule="evenodd" d="M19.688 42.9198H5.08V28.3998H8.072C7.71208 27.4749 7.53256 26.4893 7.544 25.4958V25.3198H2V45.9998H22.768V33.6798H19.688V42.9198Z" fill="#9FA0A1"/>
<path fill-rule="evenodd" clip-rule="evenodd" d="M40.2804 28.3998H42.9204V43.0078H28.3124V33.7678H25.2324V45.9998H46.0004V25.3198H39.4884C39.9874 26.2077 40.2593 27.2057 40.2804 28.2238V28.3998Z" fill="#9FA0A1"/>
<path fill-rule="evenodd" clip-rule="evenodd" d="M5.08 19.6V5.08H19.688V13.528C20.605 12.8486 21.6539 12.369 22.768 12.12V2H2V22.68H7.984C8.4064 21.5554 9.06728 20.5346 9.92 19.688L5.08 19.6Z" fill="#9FA0A1"/>
<path fill-rule="evenodd" clip-rule="evenodd" d="M28.3124 11.7682V5.08024H42.9204V19.6882H36.4964C36.7842 20.6598 36.9329 21.6674 36.9364 22.6802V22.7682H46.0004V2.00024H25.2324V11.5922C25.4964 11.5922 25.6724 11.5042 25.9364 11.5042C26.7328 11.5482 27.5257 11.6371 28.3124 11.7682Z" fill="#9FA0A1"/>
<path fill-rule="evenodd" clip-rule="evenodd" d="M37.9044 28.1361C37.9088 26.3418 36.4586 24.8845 34.6643 24.8801H34.6484H34.2084C34.4179 24.1348 34.5358 23.3665 34.5604 22.5921C34.5886 17.8093 30.7351 13.9092 25.9523 13.881C22.1815 13.8581 18.8304 16.2781 17.6644 19.8641C17.0396 19.6547 16.3875 19.5359 15.7284 19.5121C12.4231 19.5183 9.74971 22.2023 9.75587 25.5076C9.76291 28.8032 12.4328 31.474 15.7284 31.4801H34.9124C36.6214 31.2989 37.9141 29.8539 37.9044 28.1361Z" fill="#61B3D4"/>
<path fill-rule="evenodd" clip-rule="evenodd" d="M18.8963 31.4801C16.5749 29.1279 16.5995 25.3395 18.9518 23.018C19.7385 22.241 20.7241 21.698 21.8003 21.4481C22.433 21.2888 23.0913 21.2589 23.7363 21.3601C24.0118 18.3303 25.8457 15.663 28.5763 14.3201C27.7262 14.0315 26.8348 13.8828 25.9363 13.8801C22.199 13.888 18.8928 16.3054 17.7523 19.8641C17.1266 19.6547 16.4754 19.5359 15.8163 19.5121C12.511 19.5183 9.8376 22.2032 9.84376 25.5076C9.84992 28.8032 12.5198 31.474 15.8163 31.4801H18.8963Z" fill="#80C2DC"/>
</svg>
