<svg width="48" height="48" viewBox="0 0 48 48" fill="none" xmlns="http://www.w3.org/2000/svg">
<path d="M15.7599 4L8.4834 5.34196V15.2168L15.7599 16.7613L23.0619 13.8495V6.48136L15.7599 4Z" fill="url(#paint0_linear_1915_132746)"/>
<path d="M8.4834 5.34884V15.2237L15.8362 16.7682V4.10815L8.4834 5.34884ZM11.5874 14.4641L9.52653 14.0589V6.46292L11.5874 6.13376V14.4641ZM14.7931 15.0464L12.427 14.6666V5.98184L14.7931 5.57672V15.0464Z" fill="#341A6E"/>
<path d="M31.506 4.12866L24.2295 5.47062V15.3454L31.506 16.89L38.7825 13.9528V6.61002L31.506 4.12866Z" fill="url(#paint1_linear_1915_132746)"/>
<path d="M24.2295 5.46798V15.3428L31.5314 16.8873V4.22729L24.2295 5.46798ZM27.308 14.5832L25.2472 14.1781V6.58206L27.308 6.2529V14.5832ZM30.5138 15.1655L28.1476 14.7857V6.10098L30.5138 5.67054V15.1655Z" fill="#341A6E"/>
<path d="M8.30288 17.6294L1.02637 18.9714V28.8462L8.30288 30.3907L15.6048 27.4789V20.1108L8.30288 17.6294Z" fill="url(#paint2_linear_1915_132746)"/>
<path d="M1 18.9665V28.7654L8.35284 30.3099V17.6499L1 18.9665ZM4.07852 28.1071L2.01769 27.6766V20.0806L4.07852 19.7261V28.1071ZM7.3097 28.7654L4.94356 28.3856V19.5995L7.3097 19.1944V28.7654Z" fill="#341A6E"/>
<path d="M24.0001 17.5212L16.7236 18.8632V28.738L24.0001 30.3079L31.2767 27.3707V20.0026L24.0001 17.5212Z" fill="url(#paint3_linear_1915_132746)"/>
<path d="M16.7236 18.8653V28.7654L24.051 30.3099V17.6499L16.7236 18.8653ZM19.8022 28.0058L17.7413 27.5754V19.9793L19.8022 19.6249V28.0058ZM23.0079 28.5628L20.6418 28.183V19.4983L23.0079 19.0931V28.5628Z" fill="#341A6E"/>
<path d="M39.6984 17.6499L32.4219 18.9919V28.8667L39.6984 30.4112L47.0003 27.4994V20.1313L39.6984 17.6499Z" fill="url(#paint4_linear_1915_132746)"/>
<path d="M32.4219 18.9919V28.7654L39.7747 30.3099V17.6499L32.4219 18.9919ZM35.5258 28.1324L33.465 27.702V20.1059L35.5258 19.7515V28.1324ZM38.7316 28.6894L36.3654 28.3096V19.6249L38.7316 19.2197V28.6894Z" fill="#341A6E"/>
<path d="M15.5812 31.3984L8.30469 32.7151V42.5899L15.5812 44.1597L22.8832 41.2226V33.8798L15.5812 31.3984Z" fill="url(#paint5_linear_1915_132746)"/>
<path d="M8.30469 32.7155V42.5903L15.6575 44.1602V31.2976L8.30469 32.7155ZM11.4087 41.8561L9.34782 41.4256V33.8296L11.4087 33.4751V41.8561ZM14.6144 42.4384L12.2483 42.0586V33.3485L14.6144 32.9434V42.4384Z" fill="#341A6E"/>
<path d="M31.3009 31.4971L24.0244 32.839V42.7138L31.3009 44.2584L38.6029 41.3466V33.9784L31.3009 31.4971Z" fill="url(#paint6_linear_1915_132746)"/>
<path d="M24.0244 32.8459V42.7207L31.3772 44.2652V31.6052L24.0244 32.8459ZM27.1284 41.9864L25.0675 41.556V33.96L27.1284 33.6055V41.9864ZM30.3341 42.5435L27.968 42.1637V33.4789L30.3341 33.0738V42.5435Z" fill="#341A6E"/>
<defs>
<linearGradient id="paint0_linear_1915_132746" x1="8.4834" y1="10.3806" x2="23.0619" y2="10.3806" gradientUnits="userSpaceOnUse">
<stop stop-color="#B77AF4"/>
<stop offset="1" stop-color="#773ADC"/>
</linearGradient>
<linearGradient id="paint1_linear_1915_132746" x1="157.099" y1="52.494" x2="240.342" y2="52.494" gradientUnits="userSpaceOnUse">
<stop stop-color="#B77AF4"/>
<stop offset="1" stop-color="#773ADC"/>
</linearGradient>
<linearGradient id="paint2_linear_1915_132746" x1="1.17215" y1="134.012" x2="84.561" y2="134.012" gradientUnits="userSpaceOnUse">
<stop stop-color="#B77AF4"/>
<stop offset="1" stop-color="#773ADC"/>
</linearGradient>
<linearGradient id="paint3_linear_1915_132746" x1="106.661" y1="133.624" x2="189.905" y2="133.624" gradientUnits="userSpaceOnUse">
<stop stop-color="#B77AF4"/>
<stop offset="1" stop-color="#773ADC"/>
</linearGradient>
<linearGradient id="paint4_linear_1915_132746" x1="212.466" y1="134.161" x2="296" y2="134.161" gradientUnits="userSpaceOnUse">
<stop stop-color="#B77AF4"/>
<stop offset="1" stop-color="#773ADC"/>
</linearGradient>
<linearGradient id="paint5_linear_1915_132746" x1="50.1449" y1="217.203" x2="133.679" y2="217.203" gradientUnits="userSpaceOnUse">
<stop stop-color="#B77AF4"/>
<stop offset="1" stop-color="#773ADC"/>
</linearGradient>
<linearGradient id="paint6_linear_1915_132746" x1="155.959" y1="217.812" x2="239.494" y2="217.812" gradientUnits="userSpaceOnUse">
<stop stop-color="#B77AF4"/>
<stop offset="1" stop-color="#773ADC"/>
</linearGradient>
</defs>
</svg>
