<svg width="24" height="24" viewBox="0 0 24 24" fill="none" xmlns="http://www.w3.org/2000/svg">
<mask id="mask0_10_17429" style="mask-type:alpha" maskUnits="userSpaceOnUse" x="0" y="0" width="24" height="24">
<path d="M4.71636 19.9542L0.883219 17.0792C0.763706 16.9904 0.666722 16.8748 0.600113 16.7416C0.533504 16.6084 0.49913 16.4615 0.499764 16.3126V7.68749C0.49913 7.5386 0.533504 7.39165 0.600113 7.2585C0.666722 7.12534 0.763706 7.00971 0.883219 6.92094L4.71636 4.0459C4.61338 4.14259 4.53557 4.26295 4.48966 4.39654C4.44375 4.53013 4.43115 4.6729 4.45293 4.81246V19.1876C4.43115 19.3272 4.44375 19.4699 4.48966 19.6036C4.53557 19.7372 4.61338 19.8575 4.71636 19.9542Z" fill="white"/>
<path d="M23.0735 4.49163C22.9155 4.38788 22.7306 4.33289 22.5416 4.3335C22.4192 4.33251 22.2977 4.35569 22.1843 4.4017C22.0708 4.4477 21.9675 4.51563 21.8803 4.6016L21.8135 4.6688L14.1659 12.0001L9.93462 16.0587L6.0199 19.8105L5.9527 19.8778C5.86561 19.9638 5.76235 20.0318 5.64887 20.078C5.53538 20.124 5.41391 20.1472 5.29144 20.1461C5.08411 20.1457 4.88246 20.0785 4.71644 19.9543L0.883301 17.0793C1.07805 17.2255 1.32122 17.2921 1.56332 17.2654C1.80542 17.2387 2.02824 17.1207 2.18641 16.9355L6.44146 11.9954L9.93462 7.94167L16.0538 0.835301C16.1426 0.730061 16.2534 0.645522 16.3784 0.587602C16.5034 0.529682 16.6394 0.499785 16.7772 0.500005C16.9662 0.499395 17.1512 0.554387 17.309 0.658133L23.0735 4.49163Z" fill="white"/>
<path d="M23.0735 19.5091L17.3235 23.3425C17.1278 23.4703 16.8927 23.5232 16.6612 23.4915C16.4298 23.4598 16.2175 23.3456 16.0634 23.1701L9.93462 16.0591L6.44146 11.9959L2.18641 7.06018C2.02683 6.87684 1.80381 6.76064 1.5621 6.73491C1.3204 6.70918 1.07791 6.77584 0.883301 6.92148L4.71644 4.04644C4.88246 3.92225 5.08411 3.85494 5.29144 3.85453C5.41391 3.8535 5.53538 3.87668 5.64887 3.92275C5.76235 3.96882 5.86561 4.03688 5.9527 4.12298L6.0199 4.19019L9.93462 7.94212L14.1659 12.0006L21.8135 19.3319L21.8803 19.3991C21.9675 19.4851 22.0708 19.553 22.1843 19.599C22.2977 19.645 22.4192 19.6682 22.5416 19.6672C22.7306 19.6678 22.9155 19.6128 23.0735 19.5091Z" fill="white"/>
<path d="M23.5002 5.29167V18.7088C23.5003 18.8669 23.4615 19.0226 23.3871 19.1621C23.3126 19.3017 23.205 19.4207 23.0736 19.5087L17.3235 23.3421C17.4549 23.2541 17.5626 23.135 17.637 22.9954C17.7113 22.8558 17.7502 22.7001 17.75 22.5418V1.45854C17.748 1.29918 17.7066 1.1428 17.6297 1.00322C17.5528 0.86363 17.4427 0.745134 17.3091 0.658203L23.0736 4.4917C23.2046 4.58003 23.3121 4.69914 23.3864 4.83859C23.4608 4.97806 23.4998 5.13362 23.5002 5.29167Z" fill="white"/>
</mask>
<g mask="url(#mask0_10_17429)">
<path d="M4.71636 19.9542L0.883219 17.0792C0.763706 16.9904 0.666722 16.8747 0.600113 16.7416C0.533504 16.6084 0.49913 16.4615 0.499764 16.3126V7.68749C0.49913 7.5386 0.533504 7.39165 0.600113 7.2585C0.666722 7.12534 0.763706 7.00971 0.883219 6.92094L4.71636 4.0459C4.61338 4.14259 4.53557 4.26295 4.48966 4.39654C4.44375 4.53013 4.43115 4.6729 4.45293 4.81246V19.1876C4.43115 19.3272 4.44375 19.47 4.48966 19.6036C4.53557 19.7372 4.61338 19.8575 4.71636 19.9542Z" fill="#5E438F"/>
<g filter="url(#filter0_dd_10_17429)">
<path d="M23.0732 4.49163C22.9154 4.38788 22.7304 4.33289 22.5414 4.3335C22.419 4.33251 22.2975 4.35569 22.184 4.4017C22.0706 4.4477 21.9674 4.51563 21.8802 4.6016L21.8133 4.6688L17.74 8.57418L14.1657 12.0001L9.93437 16.0587L6.01965 19.8105L5.95246 19.8778C5.86536 19.9638 5.76211 20.0318 5.64863 20.078C5.53514 20.124 5.41367 20.1472 5.2912 20.1461C5.08387 20.1457 4.88221 20.0785 4.71619 19.9543L0.883057 17.0793C1.07779 17.2255 1.32098 17.2921 1.56308 17.2654C1.80518 17.2387 2.02799 17.1207 2.18616 16.9355L4.3331 14.4439L6.44121 11.9955L9.93437 7.94167L16.0535 0.835301C16.1424 0.730061 16.2532 0.645522 16.3782 0.587602C16.5031 0.529682 16.6393 0.499785 16.7769 0.500005C16.9659 0.499395 17.1509 0.554387 17.3088 0.658133L23.0732 4.49163Z" fill="url(#paint0_linear_10_17429)"/>
</g>
<g filter="url(#filter1_dd_10_17429)">
<path d="M23.0734 19.5081L17.3234 23.3416C17.1279 23.4694 16.8928 23.5222 16.6613 23.4905C16.4298 23.4588 16.2176 23.3448 16.0635 23.169L9.93462 16.0581L6.44146 11.9949L4.33334 9.55113L2.18641 7.05921C2.02683 6.87585 1.80379 6.75966 1.5621 6.73392C1.3204 6.70819 1.07791 6.77485 0.883301 6.92048L4.71644 4.04546C4.88246 3.92126 5.08411 3.85395 5.29144 3.85355C5.41391 3.85251 5.53538 3.87569 5.64887 3.92177C5.76235 3.96784 5.86561 4.03589 5.9527 4.12201L6.0199 4.1892L9.93462 7.94112L14.166 11.9996L17.7454 15.4306L21.8135 19.3309L21.8804 19.3982C21.9676 19.4841 22.0708 19.552 22.1842 19.598C22.2978 19.644 22.4192 19.6672 22.5416 19.6662C22.7306 19.6668 22.9156 19.6118 23.0734 19.5081Z" fill="url(#paint1_linear_10_17429)"/>
</g>
<g filter="url(#filter2_dd_10_17429)">
<path d="M23.5002 5.29167V18.7087C23.5003 18.8669 23.4615 19.0226 23.3871 19.1622C23.3126 19.3016 23.205 19.4208 23.0736 19.5087L17.3234 23.3422C17.4549 23.2542 17.5626 23.1351 17.6369 22.9955C17.7113 22.8559 17.7502 22.7001 17.75 22.5419V1.45854C17.748 1.29919 17.7066 1.1428 17.6297 1.00322C17.5528 0.863629 17.4427 0.745133 17.3091 0.658203L23.0736 4.49169C23.2046 4.58003 23.312 4.69914 23.3864 4.83861C23.4607 4.97806 23.4998 5.13363 23.5002 5.29167Z" fill="url(#paint2_linear_10_17429)"/>
</g>
</g>
<defs>
<filter id="filter0_dd_10_17429" x="-4.2979" y="-3.38572" width="32.5521" height="30.0079" filterUnits="userSpaceOnUse" color-interpolation-filters="sRGB">
<feFlood flood-opacity="0" result="BackgroundImageFix"/>
<feColorMatrix in="SourceAlpha" type="matrix" values="0 0 0 0 0 0 0 0 0 0 0 0 0 0 0 0 0 0 127 0" result="hardAlpha"/>
<feOffset dy="0.246095"/>
<feGaussianBlur stdDeviation="0.246095"/>
<feColorMatrix type="matrix" values="0 0 0 0 0 0 0 0 0 0 0 0 0 0 0 0 0 0 0.24 0"/>
<feBlend mode="normal" in2="BackgroundImageFix" result="effect1_dropShadow_10_17429"/>
<feColorMatrix in="SourceAlpha" type="matrix" values="0 0 0 0 0 0 0 0 0 0 0 0 0 0 0 0 0 0 127 0" result="hardAlpha"/>
<feOffset dy="1.29524"/>
<feGaussianBlur stdDeviation="2.59048"/>
<feColorMatrix type="matrix" values="0 0 0 0 0 0 0 0 0 0 0 0 0 0 0 0 0 0 0.22 0"/>
<feBlend mode="normal" in2="effect1_dropShadow_10_17429" result="effect2_dropShadow_10_17429"/>
<feBlend mode="normal" in="SourceGraphic" in2="effect2_dropShadow_10_17429" result="shape"/>
</filter>
<filter id="filter1_dd_10_17429" x="-4.29766" y="-0.0322045" width="32.5521" height="30.0079" filterUnits="userSpaceOnUse" color-interpolation-filters="sRGB">
<feFlood flood-opacity="0" result="BackgroundImageFix"/>
<feColorMatrix in="SourceAlpha" type="matrix" values="0 0 0 0 0 0 0 0 0 0 0 0 0 0 0 0 0 0 127 0" result="hardAlpha"/>
<feOffset dy="0.246095"/>
<feGaussianBlur stdDeviation="0.246095"/>
<feColorMatrix type="matrix" values="0 0 0 0 0 0 0 0 0 0 0 0 0 0 0 0 0 0 0.24 0"/>
<feBlend mode="normal" in2="BackgroundImageFix" result="effect1_dropShadow_10_17429"/>
<feColorMatrix in="SourceAlpha" type="matrix" values="0 0 0 0 0 0 0 0 0 0 0 0 0 0 0 0 0 0 127 0" result="hardAlpha"/>
<feOffset dy="1.29524"/>
<feGaussianBlur stdDeviation="2.59048"/>
<feColorMatrix type="matrix" values="0 0 0 0 0 0 0 0 0 0 0 0 0 0 0 0 0 0 0.22 0"/>
<feBlend mode="normal" in2="effect1_dropShadow_10_17429" result="effect2_dropShadow_10_17429"/>
<feBlend mode="normal" in="SourceGraphic" in2="effect2_dropShadow_10_17429" result="shape"/>
</filter>
<filter id="filter2_dd_10_17429" x="1.76622" y="-14.8847" width="37.2769" height="53.7698" filterUnits="userSpaceOnUse" color-interpolation-filters="sRGB">
<feFlood flood-opacity="0" result="BackgroundImageFix"/>
<feColorMatrix in="SourceAlpha" type="matrix" values="0 0 0 0 0 0 0 0 0 0 0 0 0 0 0 0 0 0 127 0" result="hardAlpha"/>
<feOffset/>
<feGaussianBlur stdDeviation="0.129524"/>
<feColorMatrix type="matrix" values="0 0 0 0 0 0 0 0 0 0 0 0 0 0 0 0 0 0 0.24 0"/>
<feBlend mode="normal" in2="BackgroundImageFix" result="effect1_dropShadow_10_17429"/>
<feColorMatrix in="SourceAlpha" type="matrix" values="0 0 0 0 0 0 0 0 0 0 0 0 0 0 0 0 0 0 127 0" result="hardAlpha"/>
<feOffset/>
<feGaussianBlur stdDeviation="7.77143"/>
<feColorMatrix type="matrix" values="0 0 0 0 0 0 0 0 0 0 0 0 0 0 0 0 0 0 0.3 0"/>
<feBlend mode="normal" in2="effect1_dropShadow_10_17429" result="effect2_dropShadow_10_17429"/>
<feBlend mode="normal" in="SourceGraphic" in2="effect2_dropShadow_10_17429" result="shape"/>
</filter>
<linearGradient id="paint0_linear_10_17429" x1="19.1872" y1="0.500001" x2="2.10845" y2="17.6894" gradientUnits="userSpaceOnUse">
<stop stop-color="#7252AA"/>
<stop offset="1" stop-color="#7252AA"/>
</linearGradient>
<linearGradient id="paint1_linear_10_17429" x1="2.6562" y1="4.69206" x2="18.7083" y2="22.6608" gradientUnits="userSpaceOnUse">
<stop stop-color="#AE7FE2"/>
<stop offset="1" stop-color="#9A70D4"/>
</linearGradient>
<linearGradient id="paint2_linear_10_17429" x1="20.3365" y1="0.195676" x2="20.3365" y2="23.3229" gradientUnits="userSpaceOnUse">
<stop stop-color="#D59DFF"/>
<stop offset="1" stop-color="#C18EF1"/>
</linearGradient>
</defs>
</svg>
