<svg width="48" height="48" viewBox="0 0 48 48" fill="none" xmlns="http://www.w3.org/2000/svg">
<path fill-rule="evenodd" clip-rule="evenodd" d="M11.2305 33.9776H37.2703V30.873H11.2305V33.9776Z" fill="#68217A"/>
<path fill-rule="evenodd" clip-rule="evenodd" d="M8.14062 29.771L20.733 17.5244L22.9901 19.7196L10.3977 31.9662L8.14062 29.771Z" fill="#68217A"/>
<path fill-rule="evenodd" clip-rule="evenodd" d="M27.343 17.5437L39.9345 29.7911L37.6775 31.9863L25.0859 19.7389L27.343 17.5437Z" fill="#68217A"/>
<path fill-rule="evenodd" clip-rule="evenodd" d="M23.9999 18.0457C23.1599 18.0457 22.4879 17.3921 22.4879 16.5751C22.4879 15.7581 23.1599 15.1045 23.9999 15.1045C24.8399 15.1045 25.5119 15.7581 25.5119 16.5751C25.5119 17.3921 24.8399 18.0457 23.9999 18.0457ZM23.9999 12C21.3959 12 19.2959 14.0425 19.2959 16.5751C19.2959 19.1077 21.3959 21.1502 23.9999 21.1502C26.6039 21.1502 28.7038 19.1077 28.7038 16.5751C28.7038 14.0425 26.6039 12 23.9999 12Z" fill="#7FBA00"/>
<path fill-rule="evenodd" clip-rule="evenodd" d="M7.70397 33.8955C6.86398 33.8955 6.19198 33.2419 6.19198 32.425C6.19198 31.608 6.86398 30.9544 7.70397 30.9544C8.54397 30.9544 9.21596 31.608 9.21596 32.425C9.21596 33.2419 8.54397 33.8955 7.70397 33.8955ZM7.70397 27.8499C5.09999 27.8499 3 29.8923 3 32.425C3 34.9576 5.09999 37.0001 7.70397 37.0001C10.308 37.0001 12.4079 34.9576 12.4079 32.425C12.4079 29.8923 10.308 27.8499 7.70397 27.8499Z" fill="#7FBA00"/>
<path fill-rule="evenodd" clip-rule="evenodd" d="M40.2977 33.8953C39.4577 33.8953 38.7857 33.2417 38.7857 32.4247C38.7857 31.6077 39.4577 30.9541 40.2977 30.9541C41.1377 30.9541 41.8097 31.6077 41.8097 32.4247C41.8097 33.2417 41.1377 33.8953 40.2977 33.8953ZM40.2977 27.8496C37.6937 27.8496 35.5938 29.8921 35.5938 32.4247C35.5938 34.9574 37.6937 36.9998 40.2977 36.9998C42.9017 36.9998 45.0017 34.9574 45.0017 32.4247C45.0017 29.8921 42.9017 27.8496 40.2977 27.8496Z" fill="#7FBA00"/>
</svg>
