<svg width="50" height="55" viewBox="0 0 50 55" fill="none" xmlns="http://www.w3.org/2000/svg">
<g opacity="0.15" filter="url(#filter0_d_1915_133566)">
<path d="M43.0936 8.70265C40.8786 8.68413 38.6863 8.25482 36.6279 7.43649C34.0596 6.53849 31.7698 4.17672 30.1893 3.30567C28.6973 2.38335 26.9678 1.91821 25.2144 1.96766C23.3758 1.91672 21.5596 2.38011 19.9701 3.30567C18.3896 4.20366 15.9471 6.3499 13.3788 7.25688C11.3168 8.07203 9.12149 8.49825 6.9042 8.51405C6.3654 8.51405 5.91639 8.51405 5.54821 8.51405C5.22824 8.51404 4.92127 8.64057 4.69417 8.86598C4.46708 9.09139 4.33831 9.39743 4.33594 9.71739V20.6281C4.35225 22.1579 4.61921 23.6747 5.12618 25.1181C5.62088 26.9567 6.40927 28.7033 7.46095 30.2905C8.56156 32.2147 9.9013 33.9919 11.4481 35.5797C13.5552 37.8223 15.8505 39.8803 18.3088 41.7311C19.8534 42.8805 25.2593 46.1582 25.2144 46.0324C25.2144 46.1582 30.3869 42.8805 31.9314 41.7311C34.3136 39.9414 36.5314 37.9429 38.5586 35.7593C40.1068 34.1727 41.4467 32.3953 42.5458 30.4701C43.5926 28.8846 44.3779 27.1413 44.8716 25.3066C45.3779 23.863 45.6449 22.3464 45.6618 20.8166V9.87003C45.663 9.71168 45.6328 9.55469 45.5727 9.40815C45.5127 9.26162 45.424 9.12846 45.312 9.01648C45.2001 8.90451 45.0669 8.81591 44.9204 8.75587C44.7738 8.69582 44.6169 8.66555 44.4586 8.66675C44.0904 8.66675 43.6324 8.67571 43.0936 8.70265Z" fill="#1F1D20"/>
</g>
<path d="M46.0568 24.1314C46.3878 23.0148 46.5505 21.8551 46.5396 20.6906V9.27982C46.5396 9.11424 46.5068 8.9503 46.4431 8.79744C46.3795 8.64458 46.2863 8.50582 46.1688 8.38915C46.0513 8.27248 45.9119 8.1802 45.7586 8.11764C45.6053 8.05508 45.4411 8.02348 45.2755 8.02464C44.8893 8.02464 44.3978 8.02464 43.8624 8.02464C41.5501 8.00936 39.261 7.56284 37.1125 6.70801C34.4354 5.76882 32.0567 3.31109 30.4065 2.40701C28.8494 1.44733 27.0475 0.959539 25.2189 1.00263L20.1807 27.1332L46.0568 24.1314Z" fill="#0883D9"/>
<path d="M12.8778 6.59398C10.7298 7.44019 8.44511 7.8864 6.13659 7.91061C5.57483 7.91061 5.10085 7.91061 4.71464 7.91061C4.38174 7.91061 4.06242 8.04284 3.82703 8.27823C3.59164 8.51363 3.45941 8.83289 3.45941 9.16579V20.5766C3.44906 21.8082 3.62966 23.0341 3.99482 24.2105H25.2189V1.07289C23.3023 1.03468 21.4116 1.52029 19.7505 2.47733C18.0916 3.38141 15.5549 5.64601 12.8778 6.59398Z" fill="#33BFF0"/>
<path d="M25.2188 46.9968C25.2188 47.1196 30.6169 43.7052 32.2408 42.5115C34.7252 40.6417 37.0398 38.5563 39.1574 36.2795C40.7688 34.6249 42.1639 32.7727 43.3092 30.7671C44.4081 29.1152 45.2294 27.2947 45.7406 25.3777C45.8722 24.9038 45.9864 24.5 46.0829 24.1313H25.2451L25.2188 46.9968Z" fill="#0F5094"/>
<path d="M3.99512 24.1313C4.07411 24.4473 4.17074 24.7897 4.28484 25.1847C4.79731 27.0997 5.61536 28.9196 6.70745 30.5741C7.85503 32.5831 9.25305 34.4383 10.868 36.0951C13.0645 38.4347 15.4579 40.5813 18.0217 42.5115C19.628 43.7052 25.2631 47.1196 25.2192 46.9968V24.1752L3.99512 24.1313Z" fill="#0370C8"/>
<defs>
<filter id="filter0_d_1915_133566" x="0.335938" y="1.96387" width="49.3262" height="52.072" filterUnits="userSpaceOnUse" color-interpolation-filters="sRGB">
<feFlood flood-opacity="0" result="BackgroundImageFix"/>
<feColorMatrix in="SourceAlpha" type="matrix" values="0 0 0 0 0 0 0 0 0 0 0 0 0 0 0 0 0 0 127 0" result="hardAlpha"/>
<feOffset dy="4"/>
<feGaussianBlur stdDeviation="2"/>
<feComposite in2="hardAlpha" operator="out"/>
<feColorMatrix type="matrix" values="0 0 0 0 0 0 0 0 0 0 0 0 0 0 0 0 0 0 0.25 0"/>
<feBlend mode="normal" in2="BackgroundImageFix" result="effect1_dropShadow_1915_133566"/>
<feBlend mode="normal" in="SourceGraphic" in2="effect1_dropShadow_1915_133566" result="shape"/>
</filter>
</defs>
</svg>
