<svg width="48" height="48" viewBox="0 0 48 48" fill="none" xmlns="http://www.w3.org/2000/svg">
<path d="M42.7996 3H20.8996C20.526 2.99994 20.1673 3.14664 19.9007 3.4085C19.6342 3.67035 19.4812 4.02642 19.4746 4.4V35.6C20.5867 34.6698 21.7741 33.8336 23.0246 33.1H27.1746L29.4746 36.15V40.775L26.5746 42.875L22.5496 42.375L19.4746 39.475V43.7C19.4812 44.0736 19.6342 44.4296 19.9007 44.6915C20.1673 44.9534 20.526 45.1001 20.8996 45.1H42.7996C43.1709 45.1 43.527 44.9525 43.7896 44.6899C44.0521 44.4274 44.1996 44.0713 44.1996 43.7V4.4C44.1996 4.0287 44.0521 3.6726 43.7896 3.41005C43.527 3.1475 43.1709 3 42.7996 3V3Z" fill="url(#paint0_linear_1915_133550)"/>
<path d="M22.7511 7.375H26.7761C26.8689 7.375 26.9579 7.41188 27.0235 7.47751C27.0892 7.54315 27.1261 7.63217 27.1261 7.725V12.925C27.1261 13.0178 27.0892 13.1068 27.0235 13.1725C26.9579 13.2381 26.8689 13.275 26.7761 13.275H22.7511C22.7051 13.275 22.6596 13.2659 22.6171 13.2484C22.5746 13.2308 22.5361 13.205 22.5036 13.1725C22.4711 13.14 22.4453 13.1014 22.4277 13.0589C22.4101 13.0165 22.4011 12.971 22.4011 12.925V7.725C22.4011 7.67904 22.4101 7.63352 22.4277 7.59106C22.4453 7.5486 22.4711 7.51001 22.5036 7.47751C22.5361 7.44501 22.5746 7.41923 22.6171 7.40164C22.6596 7.38405 22.7051 7.375 22.7511 7.375V7.375ZM29.8261 7.375H33.8511C33.9439 7.375 34.0329 7.41188 34.0985 7.47751C34.1642 7.54315 34.2011 7.63217 34.2011 7.725V12.925C34.2011 13.0178 34.1642 13.1068 34.0985 13.1725C34.0329 13.2381 33.9439 13.275 33.8511 13.275H29.8261C29.7332 13.275 29.6442 13.2381 29.5786 13.1725C29.5129 13.1068 29.4761 13.0178 29.4761 12.925V7.725C29.4761 7.63217 29.5129 7.54315 29.5786 7.47751C29.6442 7.41188 29.7332 7.375 29.8261 7.375ZM36.9261 7.375H40.9511C41.0439 7.375 41.1329 7.41188 41.1985 7.47751C41.2642 7.54315 41.3011 7.63217 41.3011 7.725V12.925C41.3011 13.0178 41.2642 13.1068 41.1985 13.1725C41.1329 13.2381 41.0439 13.275 40.9511 13.275H36.9261C36.8332 13.275 36.7442 13.2381 36.6786 13.1725C36.6129 13.1068 36.5761 13.0178 36.5761 12.925V7.725C36.5761 7.63217 36.6129 7.54315 36.6786 7.47751C36.7442 7.41188 36.8332 7.375 36.9261 7.375ZM22.7511 16.775H26.7761C26.8689 16.775 26.9579 16.8119 27.0235 16.8775C27.0892 16.9431 27.1261 17.0322 27.1261 17.125V22.375C27.1261 22.421 27.117 22.4665 27.0994 22.5089C27.0818 22.5514 27.056 22.59 27.0235 22.6225C26.991 22.655 26.9525 22.6808 26.91 22.6984C26.8675 22.7159 26.822 22.725 26.7761 22.725H22.7511C22.7051 22.725 22.6596 22.7159 22.6171 22.6984C22.5746 22.6808 22.5361 22.655 22.5036 22.6225C22.4711 22.59 22.4453 22.5514 22.4277 22.5089C22.4101 22.4665 22.4011 22.421 22.4011 22.375V17.175C22.3938 17.125 22.3975 17.0741 22.4118 17.0257C22.4262 16.9772 22.4508 16.9325 22.4841 16.8945C22.5173 16.8565 22.5584 16.8261 22.6045 16.8055C22.6506 16.7849 22.7006 16.7745 22.7511 16.775V16.775ZM29.8261 16.775H33.8511C33.9439 16.775 34.0329 16.8119 34.0985 16.8775C34.1642 16.9431 34.2011 17.0322 34.2011 17.125V22.375C34.2011 22.421 34.192 22.4665 34.1744 22.5089C34.1568 22.5514 34.131 22.59 34.0985 22.6225C34.066 22.655 34.0275 22.6808 33.985 22.6984C33.9425 22.7159 33.897 22.725 33.8511 22.725H29.8261C29.7801 22.725 29.7346 22.7159 29.6921 22.6984C29.6496 22.6808 29.6111 22.655 29.5786 22.6225C29.5461 22.59 29.5203 22.5514 29.5027 22.5089C29.4851 22.4665 29.4761 22.421 29.4761 22.375V17.175C29.4688 17.125 29.4725 17.0741 29.4868 17.0257C29.5012 16.9772 29.5258 16.9325 29.5591 16.8945C29.5923 16.8565 29.6334 16.8261 29.6795 16.8055C29.7256 16.7849 29.7756 16.7745 29.8261 16.775V16.775ZM36.9261 16.775H40.9511C41.0439 16.775 41.1329 16.8119 41.1985 16.8775C41.2642 16.9431 41.3011 17.0322 41.3011 17.125V22.375C41.3011 22.421 41.292 22.4665 41.2744 22.5089C41.2568 22.5514 41.231 22.59 41.1985 22.6225C41.166 22.655 41.1275 22.6808 41.085 22.6984C41.0425 22.7159 40.997 22.725 40.9511 22.725H36.9261C36.8801 22.725 36.8346 22.7159 36.7921 22.6984C36.7496 22.6808 36.7111 22.655 36.6786 22.6225C36.6461 22.59 36.6203 22.5514 36.6027 22.5089C36.5851 22.4665 36.5761 22.421 36.5761 22.375V17.175C36.5688 17.125 36.5725 17.0741 36.5868 17.0257C36.6012 16.9772 36.6258 16.9325 36.6591 16.8945C36.6923 16.8565 36.7334 16.8261 36.7795 16.8055C36.8256 16.7849 36.8756 16.7745 36.9261 16.775ZM22.7511 26.275H26.7761C26.8689 26.275 26.9579 26.3119 27.0235 26.3775C27.0892 26.4431 27.1261 26.5322 27.1261 26.625V31.775C27.1261 31.8678 27.0892 31.9568 27.0235 32.0225C26.9579 32.0881 26.8689 32.125 26.7761 32.125H22.7511C22.7051 32.125 22.6596 32.1159 22.6171 32.0984C22.5746 32.0808 22.5361 32.055 22.5036 32.0225C22.4711 31.99 22.4453 31.9514 22.4277 31.9089C22.4101 31.8665 22.4011 31.821 22.4011 31.775V26.625C22.4011 26.5322 22.4379 26.4431 22.5036 26.3775C22.5692 26.3119 22.6582 26.275 22.7511 26.275V26.275ZM29.8261 26.275H33.8511C33.9439 26.275 34.0329 26.3119 34.0985 26.3775C34.1642 26.4431 34.2011 26.5322 34.2011 26.625V31.775C34.2011 31.8678 34.1642 31.9568 34.0985 32.0225C34.0329 32.0881 33.9439 32.125 33.8511 32.125H29.8261C29.7332 32.125 29.6442 32.0881 29.5786 32.0225C29.5129 31.9568 29.4761 31.8678 29.4761 31.775V26.625C29.4761 26.5322 29.5129 26.4431 29.5786 26.3775C29.6442 26.3119 29.7332 26.275 29.8261 26.275V26.275ZM29.8261 35.725H33.8511C33.9439 35.725 34.0329 35.7619 34.0985 35.8275C34.1642 35.8931 34.2011 35.9822 34.2011 36.075V43.775C34.2011 43.8678 34.1642 43.9568 34.0985 44.0225C34.0329 44.0881 33.9439 44.125 33.8511 44.125H29.8261C29.7332 44.125 29.6442 44.0881 29.5786 44.0225C29.5129 43.9568 29.4761 43.8678 29.4761 43.775V36.075C29.4761 35.9822 29.5129 35.8931 29.5786 35.8275C29.6442 35.7619 29.7332 35.725 29.8261 35.725ZM36.9261 26.275H40.9511C41.0439 26.275 41.1329 26.3119 41.1985 26.3775C41.2642 26.4431 41.3011 26.5322 41.3011 26.625V31.775C41.3011 31.8678 41.2642 31.9568 41.1985 32.0225C41.1329 32.0881 41.0439 32.125 40.9511 32.125H36.9261C36.8332 32.125 36.7442 32.0881 36.6786 32.0225C36.6129 31.9568 36.5761 31.8678 36.5761 31.775V26.625C36.5761 26.5322 36.6129 26.4431 36.6786 26.3775C36.7442 26.3119 36.8332 26.275 36.9261 26.275V26.275Z" fill="#F2F2F2"/>
<path d="M24.8498 34.2754C24.129 34.2892 23.4332 34.5424 22.872 34.9949C22.3108 35.4475 21.916 36.0739 21.7498 36.7754H10.4998C10.3703 37.3075 10.3031 37.8528 10.2998 38.4004V38.5504H21.7498C21.942 39.1084 22.2837 39.603 22.7376 39.9802C23.1915 40.3574 23.7402 40.6029 24.324 40.6898C24.9077 40.7767 25.5041 40.7018 26.0482 40.4732C26.5924 40.2446 27.0633 39.871 27.4098 39.3932C27.7562 38.9154 27.9649 38.3517 28.0132 37.7635C28.0614 37.1753 27.9473 36.5851 27.6832 36.0573C27.4192 35.5294 27.0154 35.0841 26.5158 34.77C26.0162 34.4558 25.4399 34.2847 24.8498 34.2754V34.2754Z" fill="#50E6FF"/>
<path d="M33.6006 32.9255C33.5033 30.7677 32.5534 28.7368 30.9596 27.2789C29.3658 25.8211 27.2585 25.0555 25.1006 25.1505C23.3662 25.1153 21.6639 25.6212 20.2303 26.5979C18.7966 27.5746 17.7027 28.9736 17.1006 30.6005C15.6918 30.7901 14.3596 31.3539 13.2428 32.2333C12.126 33.1127 11.2654 34.2755 10.7506 35.6005H21.1006C21.4379 34.905 21.9565 34.3133 22.6018 33.8877C23.247 33.4621 23.995 33.2182 24.7671 33.1819C25.5393 33.1455 26.3069 33.3179 26.9893 33.681C27.6717 34.0441 28.2436 34.5844 28.6448 35.2451C29.046 35.9058 29.2618 36.6624 29.2693 37.4354C29.2768 38.2083 29.0758 38.969 28.6875 39.6373C28.2991 40.3057 27.7378 40.857 27.0626 41.2333C26.3874 41.6095 25.6233 41.7968 24.8506 41.7755C24.0432 41.7574 23.257 41.5137 22.581 41.0719C21.905 40.63 21.3662 40.0077 21.0256 39.2755H10.4756C10.9176 41.0363 11.9454 42.5945 13.3901 43.6939C14.8349 44.7934 16.6106 45.3687 18.4256 45.3255H32.2756H32.6256C34.2692 45.312 35.8481 44.6834 37.0512 43.5635C38.2543 42.4437 38.9944 40.9139 39.1256 39.2755C39.1074 37.7337 38.5418 36.2486 37.5297 35.0854C36.5176 33.9222 35.125 33.1566 33.6006 32.9255V32.9255Z" fill="url(#paint1_linear_1915_133550)"/>
<path d="M24.85 34.2743C24.1292 34.2881 23.4334 34.5412 22.8722 34.9938C22.311 35.4464 21.9162 36.0727 21.75 36.7743H10.5C10.1041 36.7663 9.71019 36.716 9.325 36.6243C8.06598 36.3471 6.93518 35.6584 6.11122 34.6669C5.28726 33.6755 4.81709 32.4377 4.775 31.1493C4.79053 29.7279 5.32525 28.3613 6.27842 27.3068C7.23159 26.2524 8.53744 25.5828 9.95 25.4243H10.5L10.675 24.9243C11.1212 23.656 11.9554 22.5605 13.0593 21.7932C14.1633 21.0258 15.4808 20.6256 16.825 20.6493C17.9688 20.6392 19.0955 20.9266 20.0948 21.4832C21.094 22.0398 21.9315 22.8465 22.525 23.8243C23.1384 23.6726 23.7681 23.597 24.4 23.5993C23.7242 22.1834 22.661 20.988 21.3336 20.1517C20.0062 19.3154 18.4689 18.8725 16.9 18.8743C15.2741 18.829 13.6714 19.2684 12.2958 20.1365C10.9202 21.0046 9.83393 22.2621 9.175 23.7493C7.45714 24.0575 5.90056 24.9552 4.77341 26.2877C3.64626 27.6202 3.01911 29.3041 3 31.0493C3.03389 32.6808 3.59902 34.2568 4.60964 35.5381C5.62026 36.8195 7.02123 37.7362 8.6 38.1493V38.1493C9.18438 38.3619 9.8033 38.4636 10.425 38.4493H21.75C21.9256 39.0189 22.2556 39.5287 22.7034 39.9221C23.1512 40.3155 23.6993 40.5771 24.2868 40.6778C24.8743 40.7786 25.4782 40.7145 26.0315 40.4928C26.5848 40.2711 27.0658 39.9004 27.4212 39.4218C27.7765 38.9432 27.9923 38.3755 28.0445 37.7818C28.0967 37.188 27.9834 36.5914 27.717 36.0581C27.4506 35.5249 27.0417 35.0759 26.5356 34.761C26.0295 34.4461 25.4461 34.2776 24.85 34.2743V34.2743Z" fill="#50E6FF"/>
<defs>
<linearGradient id="paint0_linear_1915_133550" x1="31.8496" y1="3" x2="31.8496" y2="45.1" gradientUnits="userSpaceOnUse">
<stop stop-color="#5EA0EF"/>
<stop offset="0.18" stop-color="#559CEC"/>
<stop offset="0.47" stop-color="#3C91E5"/>
<stop offset="0.84" stop-color="#1380DA"/>
<stop offset="1" stop-color="#0078D4"/>
</linearGradient>
<linearGradient id="paint1_linear_1915_133550" x1="24.8006" y1="45.5505" x2="24.8006" y2="25.1505" gradientUnits="userSpaceOnUse">
<stop stop-color="#198AB3"/>
<stop offset="0.14" stop-color="#22A5CB"/>
<stop offset="0.3" stop-color="#29BADE"/>
<stop offset="0.47" stop-color="#2EC9EB"/>
<stop offset="0.68" stop-color="#31D1F3"/>
<stop offset="1" stop-color="#32D4F5"/>
</linearGradient>
</defs>
</svg>
