<svg width="48" height="48" viewBox="0 0 48 48" fill="none" xmlns="http://www.w3.org/2000/svg">
<g clip-path="url(#clip0_1915_133876)">
<path d="M38.4749 8.93324L24.6216 0.93324C23.5585 0.320086 22.3528 -0.00268555 21.1256 -0.00268555C19.8984 -0.00268555 18.6927 0.320086 17.6296 0.93324L3.77627 8.93324C2.71379 9.5476 1.83151 10.4305 1.21791 11.4934C0.604305 12.5564 0.280951 13.7619 0.280273 14.9892V30.9892C0.280484 32.217 0.603616 33.4231 1.21724 34.4866C1.83087 35.55 2.7134 36.4333 3.77627 37.0479L17.6429 45.0479C18.706 45.6611 19.9117 45.9838 21.1389 45.9838C22.3662 45.9838 23.5718 45.6611 24.6349 45.0479L38.5016 37.0479C39.5645 36.4333 40.447 35.55 41.0606 34.4866C41.6743 33.4231 41.9974 32.217 41.9976 30.9892V14.9892C41.9942 13.7593 41.6668 12.552 41.0484 11.4888C40.43 10.4257 39.5424 9.54422 38.4749 8.93324V8.93324Z" fill="url(#paint0_linear_1915_133876)"/>
<path d="M44.9116 20.6479L35.1702 15.0239C34.3159 14.5313 33.3471 14.272 32.3609 14.272C31.3747 14.272 30.4059 14.5313 29.5516 15.0239L19.8129 20.6479C18.958 21.1396 18.2481 21.8483 17.755 22.7024C17.262 23.5565 17.0032 24.5257 17.0049 25.5119V36.7599C17.0048 37.7458 17.2643 38.7143 17.7572 39.5681C18.2501 40.422 18.9591 41.131 19.8129 41.6239L29.5516 47.2479C30.4059 47.7405 31.3747 47.9998 32.3609 47.9998C33.3471 47.9998 34.3159 47.7405 35.1702 47.2479L44.9116 41.6239C45.7675 41.1322 46.4788 40.4239 46.9741 39.57C47.4694 38.7162 47.7311 37.747 47.7329 36.7599V25.5119C47.7313 24.5248 47.4698 23.5555 46.9745 22.7016C46.4792 21.8477 45.7677 21.1394 44.9116 20.6479V20.6479Z" fill="url(#paint1_linear_1915_133876)"/>
<path d="M20.2076 7.90137L23.0129 6.34937L35.0396 31.2747L34.0636 32.3414H7.55957L7.85824 29.1494H30.2076L20.2076 7.90137Z" fill="url(#paint2_linear_1915_133876)"/>
<path d="M7.28516 34.8933C9.4943 34.8933 11.2852 33.1025 11.2852 30.8933C11.2852 28.6842 9.4943 26.8933 7.28516 26.8933C5.07602 26.8933 3.28516 28.6842 3.28516 30.8933C3.28516 33.1025 5.07602 34.8933 7.28516 34.8933Z" fill="white"/>
<path d="M32.363 37.3866C35.8151 37.3866 38.6136 34.5881 38.6136 31.1359C38.6136 27.6838 35.8151 24.8853 32.363 24.8853C28.9108 24.8853 26.1123 27.6838 26.1123 31.1359C26.1123 34.5881 28.9108 37.3866 32.363 37.3866Z" fill="white"/>
<path d="M21.4424 10.8213C23.6515 10.8213 25.4424 9.03043 25.4424 6.82129C25.4424 4.61215 23.6515 2.82129 21.4424 2.82129C19.2332 2.82129 17.4424 4.61215 17.4424 6.82129C17.4424 9.03043 19.2332 10.8213 21.4424 10.8213Z" fill="white"/>
</g>
<defs>
<linearGradient id="paint0_linear_1915_133876" x1="24.6963" y1="-0.970759" x2="16.5816" y2="53.4719" gradientUnits="userSpaceOnUse">
<stop stop-color="#32BEDD"/>
<stop offset="1" stop-color="#198AB3"/>
</linearGradient>
<linearGradient id="paint1_linear_1915_133876" x1="28.7942" y1="19.7012" x2="38.5089" y2="50.8426" gradientUnits="userSpaceOnUse">
<stop stop-color="#50E6FF"/>
<stop offset="0.997" stop-color="#32BEDD"/>
</linearGradient>
<linearGradient id="paint2_linear_1915_133876" x1="-0.448429" y1="10.9707" x2="33.5249" y2="29.0534" gradientUnits="userSpaceOnUse">
<stop stop-color="white"/>
<stop offset="1" stop-color="#9CEBFF"/>
</linearGradient>
<clipPath id="clip0_1915_133876">
<rect width="48" height="48" fill="white"/>
</clipPath>
</defs>
</svg>
