<svg width="48" height="48" viewBox="0 0 48 48" fill="none" xmlns="http://www.w3.org/2000/svg">
<path d="M44.784 18.9835C43.6282 14.3022 40.924 10.1502 37.1112 7.2031C33.2985 4.25597 28.6017 2.68716 23.785 2.75193C18.9683 2.81669 14.3153 4.51123 10.583 7.5598C6.85073 10.6084 4.25885 14.8316 3.22912 19.5422L3.04297 20.3798H7.28997L7.4223 19.8624C8.34591 16.2008 10.4497 12.946 13.4078 10.6021C16.366 8.25824 20.0135 6.95594 23.7857 6.89686C27.558 6.83778 31.2444 8.02522 34.2744 10.2753C37.3043 12.5254 39.5087 15.7127 40.5463 19.3437L40.692 19.8398H44.9988L44.784 18.9835Z" fill="#00B294"/>
<path d="M40.4031 29.502L40.2388 29.9558C39.075 33.2562 36.9302 36.1211 34.0924 38.1656C31.2546 40.2101 27.8597 41.3364 24.3639 41.3932C20.868 41.4499 17.4384 40.4344 14.5359 38.4831C11.6334 36.5317 9.39689 33.738 8.12681 30.4771L7.95454 30.0406H3.54688L3.85147 30.9516C5.28671 35.247 8.04879 38.9745 11.7387 41.5957C15.4287 44.2169 19.8554 45.5961 24.3796 45.534C28.9038 45.472 33.2912 43.972 36.908 41.2506C40.5248 38.5292 43.1839 34.7274 44.5011 30.3943L44.7728 29.502H40.4031Z" fill="#00B294"/>
<path d="M26.0906 36.4392L21.4515 21.9357L18.5331 26.9357H4.70147C4.24821 26.9298 3.8155 26.7455 3.49703 26.4226C3.17857 26.0997 3 25.6642 3 25.2104C3 24.7567 3.17857 24.3212 3.49703 23.9983C3.8155 23.6754 4.24821 23.491 4.70147 23.4852H16.5562L22.3777 13.5098L26.6026 26.7187L28.2641 22.9463H43.2909C43.7441 22.9521 44.1769 23.1365 44.4953 23.4594C44.8138 23.7823 44.9923 24.2178 44.9923 24.6715C44.9923 25.1253 44.8138 25.5608 44.4953 25.8837C44.1769 26.2066 43.7441 26.3909 43.2909 26.3968H30.5099L26.0906 36.4392Z" fill="#00B294"/>
</svg>
