<svg width="48" height="48" viewBox="0 0 48 48" fill="none" xmlns="http://www.w3.org/2000/svg">
<g clip-path="url(#clip0_1915_133897)">
<path d="M24 46.0007C35.598 46.0007 45 36.5137 45 24.8109C45 13.1081 35.598 3.62109 24 3.62109C12.402 3.62109 3 13.1081 3 24.8109C3 36.5137 12.402 46.0007 24 46.0007Z" fill="url(#paint0_linear_1915_133897)"/>
<path d="M23.5313 39.1182C21.1348 37.6225 13.2783 32.2627 13.2783 26.0055V18.0281L14.1183 17.9783C16.1936 17.9783 18.2195 17.3301 19.9242 16.1335C21.0854 15.2361 22.543 14.8123 24.0007 14.912C25.4583 14.8123 26.8913 15.261 28.0771 16.1335C29.7818 17.3551 31.8077 18.0032 33.883 17.9783L34.723 18.0281V26.0304C34.723 32.2876 26.8666 37.6474 24.4701 39.1432L24.0007 39.4174L23.5313 39.1182Z" fill="url(#paint1_linear_1915_133897)"/>
<path d="M23.9999 38.0728C19.3305 35.156 14.4141 30.4943 14.4141 26.032V19.1017C16.6129 19.0518 18.7623 18.3538 20.5658 17.0824C21.5294 16.3345 22.7647 15.9606 23.9999 16.0603C25.2352 15.9606 26.4458 16.3345 27.4341 17.0824C29.2376 18.3538 31.387 19.0767 33.5858 19.1017V26.032C33.5858 30.4943 28.6694 35.156 23.9999 38.0728Z" fill="#50E6FF"/>
<path d="M39.6874 39.9176C41.4612 39.9176 42.8991 38.4667 42.8991 36.6768C42.8991 34.887 41.4612 33.436 39.6874 33.436C37.9135 33.436 36.4756 34.887 36.4756 36.6768C36.4756 38.4667 37.9135 39.9176 39.6874 39.9176Z" fill="white"/>
<path d="M39.6878 33.4353C41.4666 33.4353 42.8995 34.8812 42.8995 36.6761C42.8995 38.471 41.4666 39.9169 39.6878 39.9169C37.9089 39.9169 36.476 38.471 36.476 36.6761C36.476 34.8812 37.9089 33.4353 39.6878 33.4353ZM39.6878 31.8149C37.0195 31.8149 34.8701 34.0087 34.8701 36.6761C34.8701 39.3685 37.0442 41.5373 39.6878 41.5373C42.356 41.5373 44.5054 39.3436 44.5054 36.6761C44.5054 33.9838 42.3313 31.8149 39.6878 31.8149Z" fill="#B3B3B3"/>
<path d="M8.31137 39.9176C10.0852 39.9176 11.5231 38.4667 11.5231 36.6768C11.5231 34.887 10.0852 33.436 8.31137 33.436C6.53757 33.436 5.09961 34.887 5.09961 36.6768C5.09961 38.4667 6.53757 39.9176 8.31137 39.9176Z" fill="white"/>
<path d="M8.31179 33.4353C10.0906 33.4353 11.5236 34.8812 11.5236 36.6761C11.5236 38.471 10.0906 39.9169 8.31179 39.9169C6.53296 39.9169 5.10002 38.471 5.10002 36.6761C5.10002 34.8812 6.55767 33.4353 8.31179 33.4353ZM8.31179 31.8149C5.64355 31.8149 3.49414 33.9838 3.49414 36.6761C3.49414 39.3685 5.64355 41.5373 8.31179 41.5373C10.98 41.5373 13.1294 39.3685 13.1294 36.6761C13.1541 33.9838 10.98 31.8149 8.31179 31.8149Z" fill="#B3B3B3"/>
<path d="M23.9989 10.1024C25.7727 10.1024 27.2106 8.65148 27.2106 6.86164C27.2106 5.0718 25.7727 3.62085 23.9989 3.62085C22.2251 3.62085 20.7871 5.0718 20.7871 6.86164C20.7871 8.65148 22.2251 10.1024 23.9989 10.1024Z" fill="white"/>
<path d="M23.9993 3.62015C25.7781 3.62015 27.2111 5.06604 27.2111 6.86095C27.2111 8.65585 25.7781 10.1017 23.9993 10.1017C22.2205 10.1017 20.7875 8.65585 20.7875 6.86095C20.7875 5.06604 22.2205 3.62015 23.9993 3.62015ZM23.9993 1.99976C21.3311 1.99976 19.1816 4.16859 19.1816 6.86095C19.1816 9.5533 21.3311 11.7221 23.9993 11.7221C26.6675 11.7221 28.8169 9.5533 28.8169 6.86095C28.8169 4.19352 26.6675 1.99976 23.9993 1.99976Z" fill="#B3B3B3"/>
</g>
<defs>
<linearGradient id="paint0_linear_1915_133897" x1="24" y1="46.0057" x2="24" y2="3.62608" gradientUnits="userSpaceOnUse">
<stop stop-color="#198AB3"/>
<stop offset="0.442" stop-color="#28B7DB"/>
<stop offset="0.775" stop-color="#32D4F5"/>
</linearGradient>
<linearGradient id="paint1_linear_1915_133897" x1="3795.2" y1="-3062.91" x2="3811.5" y2="-3076.02" gradientUnits="userSpaceOnUse">
<stop stop-color="white" stop-opacity="0.9"/>
<stop offset="1" stop-color="white" stop-opacity="0.8"/>
</linearGradient>
<clipPath id="clip0_1915_133897">
<rect width="42" height="44" fill="white" transform="translate(3 2)"/>
</clipPath>
</defs>
</svg>
