<svg width="20" height="20" viewBox="0 0 20 20" fill="none" xmlns="http://www.w3.org/2000/svg">
<path fill-rule="evenodd" clip-rule="evenodd" d="M10.2083 1.25C5.25061 1.25 1.25 5.2509 1.25 10.209C1.25 14.123 3.77209 17.5153 7.33813 18.6458C7.86029 18.733 8.03397 18.4721 8.03397 18.2112V16.7325C5.51188 17.2544 4.98972 15.5148 4.98972 15.5148C4.55515 14.4708 4.03336 14.2099 4.03336 14.2099C3.25031 13.6881 4.1202 13.6881 4.1202 13.6881C4.98972 13.7749 5.51188 14.6449 5.51188 14.6449C6.29456 16.0366 7.59903 15.6017 8.12118 15.4276C8.20802 14.8186 8.46892 14.4708 8.72981 14.2099C6.64266 13.8618 4.55515 13.079 4.55515 9.68716C4.55515 8.73035 4.90288 7.94762 5.51188 7.25136C5.33783 7.07766 5.07693 6.20771 5.51188 4.98999C5.51188 4.98999 6.29456 4.72908 7.94713 5.94679C8.64297 5.77273 9.42565 5.68588 10.2083 5.68588C10.991 5.68588 11.6869 5.77273 12.4695 5.94679C14.2093 4.81593 14.9048 4.98999 14.9048 4.98999C15.4269 6.20771 15.0788 7.16451 14.992 7.33857C15.6006 7.94762 15.9487 8.73035 15.9487 9.774C15.9487 13.1662 13.8612 13.949 11.8609 14.2099C12.2086 14.4708 12.4695 14.9926 12.4695 15.8626V18.298C12.4695 18.5589 12.6436 18.8198 13.0785 18.733C16.6446 17.5153 19.1667 14.2099 19.1667 10.2958C19.1667 5.2509 15.166 1.25 10.2083 1.25Z" fill="black"/>
</svg>
