<svg width="28" height="28" viewBox="0 0 28 28" fill="none" xmlns="http://www.w3.org/2000/svg">
<path d="M14.3345 27.6306C14.1598 27.7418 13.9374 27.7259 13.7786 27.6306C13.016 27.154 10.8079 25.7085 8.37745 23.5957C5.35919 20.9745 3.92948 18.7029 3.27817 17.4638C2.62686 16.2248 2.00732 14.8109 2.00732 12.7935V4.1517C2.00732 3.96108 2.16618 3.80222 2.35681 3.80222C2.84926 3.80222 3.78651 3.78633 4.53313 3.67514C5.59747 3.51628 7.47197 3.02383 8.28214 2.51549C9.0923 2.00715 10.1884 1.05401 11.3322 0.640987C12.0311 0.386817 12.9525 0.323275 13.572 0.30739C13.9692 0.291504 14.0168 0.291504 14.3822 0.291504C15.0017 0.30739 15.9549 0.370932 16.6697 0.625101C17.8135 1.03813 19.0049 1.91183 19.8151 2.42017C20.6252 2.92851 22.4044 3.50039 23.4688 3.65925C24.1995 3.77045 25.105 3.78634 25.6133 3.78634C25.8198 3.78634 25.9946 3.96108 25.9946 4.16759V12.7776C25.9946 14.8109 25.518 16.2089 24.8667 17.4479C24.2154 18.687 22.6586 21.1175 19.6403 23.7228C17.2257 25.8355 15.0812 27.1858 14.3345 27.6306Z" fill="#0078D4"/>
<path d="M16.5271 1.30892C15.844 1.07064 14.9386 1.0071 14.3508 0.991211C14.0013 0.991211 13.9536 0.991211 13.5883 0.991211C13.0005 1.0071 12.1268 1.07064 11.4596 1.30892C10.3794 1.69018 9.33094 2.61154 8.56843 3.08811C7.80592 3.56468 6.01085 4.04125 5.01005 4.2001C4.00926 4.35896 2.61133 4.32719 2.61133 4.32719C2.61133 4.32719 2.61133 10.9356 2.61133 12.8578C2.61133 14.7799 3.18321 16.1143 3.80275 17.2898C4.42229 18.4654 5.78845 20.6258 8.64786 23.104C9.31505 23.6758 9.95047 24.2001 10.5541 24.6608L18.4016 2.29383C17.8138 1.92846 17.1625 1.54721 16.5271 1.30892Z" fill="#2687CE"/>
<path d="M14.0497 18.0359C15.936 18.0359 17.4651 16.5068 17.4651 14.6205C17.4651 12.7342 15.936 11.2051 14.0497 11.2051C12.1634 11.2051 10.6343 12.7342 10.6343 14.6205C10.6343 16.5068 12.1634 18.0359 14.0497 18.0359Z" fill="white"/>
<path d="M14.0488 8.36218C17.3372 8.36218 20.0377 10.9039 20.2919 14.1286H23.2466C22.9924 9.26765 18.9734 5.42334 14.0488 5.42334C9.1243 5.42334 5.10524 9.28354 4.85107 14.1286H7.8058C8.05996 10.9039 10.7605 8.36218 14.0488 8.36218Z" fill="white"/>
</svg>
