<svg width="28" height="28" viewBox="0 0 28 28" fill="none" xmlns="http://www.w3.org/2000/svg">
<g clip-path="url(#clip0_46_14084)">
<path d="M4.59503 8.19156C4.55902 8.19176 4.52333 8.18482 4.49002 8.17114C4.45671 8.15745 4.42644 8.13729 4.40098 8.11183C4.37552 8.08636 4.35536 8.0561 4.34167 8.02279C4.32799 7.98948 4.32105 7.95379 4.32125 7.91778C4.32002 7.08933 3.99037 6.29516 3.40457 5.70935C2.81876 5.12355 2.02459 4.7939 1.19614 4.79267C1.1238 4.79267 1.0544 4.76404 1.0031 4.71303C0.9518 4.66202 0.922774 4.59279 0.922363 4.52044C0.922363 4.44783 0.951208 4.3782 1.00255 4.32685C1.05389 4.27551 1.12353 4.24667 1.19614 4.24667C2.02486 4.24543 2.81926 3.91557 3.40511 3.32943C3.99096 2.74329 4.32043 1.94872 4.32125 1.12C4.32105 1.08399 4.32799 1.0483 4.34167 1.01499C4.35536 0.981677 4.37552 0.951414 4.40098 0.92595C4.42644 0.900486 4.45671 0.880328 4.49002 0.866642C4.52333 0.852957 4.55902 0.846016 4.59503 0.846223C4.63104 0.846016 4.66673 0.852957 4.70004 0.866642C4.73335 0.880328 4.76362 0.900486 4.78908 0.92595C4.81454 0.951414 4.8347 0.981677 4.84839 1.01499C4.86207 1.0483 4.86901 1.08399 4.86881 1.12C4.87004 1.94845 5.19969 2.74262 5.78549 3.32842C6.3713 3.91423 7.16547 4.24388 7.99392 4.24511C8.02993 4.24491 8.06562 4.25185 8.09893 4.26553C8.13224 4.27922 8.16251 4.29938 8.18797 4.32484C8.21343 4.3503 8.23359 4.38057 8.24728 4.41388C8.26096 4.44718 8.2679 4.48288 8.2677 4.51889C8.2679 4.5549 8.26096 4.59059 8.24728 4.6239C8.23359 4.65721 8.21343 4.68748 8.18797 4.71294C8.16251 4.7384 8.13224 4.75856 8.09893 4.77225C8.06562 4.78593 8.02993 4.79287 7.99392 4.79267C7.16534 4.79349 6.37093 5.12301 5.78504 5.7089C5.19915 6.29479 4.86963 7.0892 4.86881 7.91778C4.8684 7.99026 4.83942 8.05966 4.78817 8.11092C4.73691 8.16217 4.66751 8.19115 4.59503 8.19156Z" fill="#50E6FF"/>
<path d="M24.2837 27.1538C24.2255 27.1538 24.1697 27.1307 24.1286 27.0895C24.0874 27.0484 24.0643 26.9926 24.0643 26.9344C24.0635 26.2717 23.7999 25.6364 23.3312 25.1677C22.8626 24.6991 22.2273 24.4355 21.5645 24.4347C21.5066 24.4347 21.4511 24.4118 21.41 24.371C21.3689 24.3302 21.3456 24.2748 21.3452 24.2169C21.3452 24.1587 21.3683 24.1029 21.4095 24.0618C21.4506 24.0207 21.5064 23.9976 21.5645 23.9976C22.2274 23.9971 22.863 23.7336 23.3317 23.2649C23.8004 22.7962 24.0639 22.1606 24.0643 21.4978C24.0643 21.4396 24.0874 21.3838 24.1286 21.3427C24.1697 21.3016 24.2255 21.2784 24.2837 21.2784C24.3418 21.2784 24.3976 21.3016 24.4388 21.3427C24.4799 21.3838 24.503 21.4396 24.503 21.4978C24.5034 22.1606 24.7669 22.7962 25.2356 23.2649C25.7043 23.7336 26.3399 23.9971 27.0028 23.9976C27.0609 23.9976 27.1167 24.0207 27.1579 24.0618C27.199 24.1029 27.2221 24.1587 27.2221 24.2169C27.2221 24.2751 27.199 24.3308 27.1579 24.372C27.1167 24.4131 27.0609 24.4362 27.0028 24.4362C26.34 24.437 25.7047 24.7007 25.2361 25.1693C24.7674 25.6379 24.5038 26.2733 24.503 26.936C24.5026 26.9939 24.4793 27.0493 24.4382 27.0901C24.3971 27.1309 24.3416 27.1538 24.2837 27.1538Z" fill="#50E6FF"/>
<path d="M23.2852 11.7133C23.7239 13.5498 23.6083 15.4751 22.9528 17.2457C22.2973 19.0164 21.1315 20.553 19.6027 21.6611C18.074 22.7692 16.251 23.3991 14.3642 23.4711C12.4775 23.5431 10.6118 23.0541 9.003 22.0657C7.39422 21.0774 6.11464 19.6342 5.32608 17.9187C4.53751 16.2031 4.27538 14.2922 4.57282 12.4277C4.87027 10.5632 5.71394 8.8287 6.99714 7.44365C8.28034 6.0586 9.94544 5.08516 11.7819 4.64645C14.2444 4.05815 16.8398 4.47219 18.9971 5.79749C21.1544 7.12278 22.6969 9.25078 23.2852 11.7133Z" fill="url(#paint0_radial_46_14084)"/>
<mask id="mask0_46_14084" style="mask-type:luminance" maskUnits="userSpaceOnUse" x="4" y="4" width="20" height="20">
<path d="M23.2852 11.7133C23.7239 13.5498 23.6083 15.4751 22.9528 17.2457C22.2973 19.0164 21.1315 20.553 19.6027 21.6611C18.074 22.7692 16.251 23.3991 14.3642 23.4711C12.4775 23.5431 10.6118 23.0541 9.003 22.0657C7.39422 21.0774 6.11464 19.6342 5.32608 17.9187C4.53751 16.2031 4.27538 14.2922 4.57282 12.4277C4.87027 10.5632 5.71394 8.8287 6.99714 7.44365C8.28034 6.0586 9.94544 5.08516 11.7819 4.64645C14.2444 4.05815 16.8398 4.47219 18.9971 5.79749C21.1544 7.12278 22.6969 9.25078 23.2852 11.7133Z" fill="white"/>
</mask>
<g mask="url(#mask0_46_14084)">
<path d="M8.88075 20.4011C9.22053 20.41 9.55865 20.3508 9.87522 20.2271C10.1918 20.1033 10.4804 19.9175 10.724 19.6805C10.9677 19.4435 11.1615 19.1602 11.2939 18.8471C11.4264 18.5341 11.4949 18.1978 11.4955 17.8579C11.496 17.518 11.4285 17.1814 11.297 16.868C11.1654 16.5546 10.9725 16.2706 10.7296 16.0329C10.4867 15.7952 10.1986 15.6085 9.88246 15.4837C9.56627 15.359 9.22833 15.2988 8.88853 15.3067C8.89605 15.2343 8.89968 15.1616 8.89941 15.0889C8.89325 14.4091 8.61782 13.7595 8.13348 13.2824C7.64915 12.8054 6.99544 12.5399 6.31564 12.544H4.40541C4.21854 13.9554 4.34389 15.3907 4.77261 16.7483C5.20134 18.106 5.92297 19.353 6.88653 20.4011H8.88075Z" fill="#F2F2F2"/>
<path d="M23.4035 12.1567C23.4035 12.1333 23.4035 12.11 23.3926 12.0882C23.0849 10.4237 22.3287 8.87466 21.2055 7.60822C21.0597 7.54919 20.9094 7.50236 20.7559 7.46822C20.3472 7.3516 19.9173 7.32925 19.4986 7.40286C19.08 7.47647 18.6835 7.64411 18.3391 7.89317C17.9946 8.14223 17.7111 8.4662 17.5101 8.84068C17.309 9.21517 17.1955 9.6304 17.1781 10.0551C17.0748 10.0432 16.971 10.0364 16.867 10.0349C16.2299 10.0348 15.6132 10.2599 15.1259 10.6705C14.6387 11.081 14.3121 11.6505 14.204 12.2784C14.0959 12.9063 14.2131 13.5522 14.535 14.102C14.8569 14.6519 15.3628 15.0703 15.9632 15.2833C16.2313 15.3884 16.5169 15.4412 16.8048 15.4389H19.9626C21.2305 14.4791 22.3849 13.3779 23.4035 12.1567Z" fill="#F2F2F2"/>
</g>
<path d="M26.7416 5.96089C25.7631 4.33222 23.4749 3.69755 20.2782 4.17355C19.183 4.32877 18.1006 4.56377 17.0396 4.87667C17.8813 5.16724 18.6806 5.56846 19.4165 6.06978C19.7913 5.98733 20.1678 5.88933 20.5287 5.83489C21.0964 5.7465 21.6699 5.70022 22.2445 5.69644C22.8062 5.61547 23.3792 5.67623 23.9114 5.8732C24.4436 6.07017 24.9181 6.39709 25.2918 6.82422C25.8876 7.81667 25.3851 9.51378 23.9136 11.4909C21.8684 14.0364 19.3624 16.1742 16.5262 17.7924C13.7537 19.5229 10.6804 20.7165 7.46668 21.3111C5.03379 21.6751 3.29468 21.3111 2.6989 20.3218C2.10313 19.3324 2.60557 17.6307 4.07713 15.6629C4.25913 15.4187 4.30424 15.2989 4.51113 15.0531C4.41389 14.2098 4.42748 13.3574 4.55157 12.5176C3.89023 13.1805 3.28171 13.894 2.73157 14.6518C0.804238 17.2293 0.281571 19.5471 1.25846 21.1758C1.77451 21.8662 2.46278 22.409 3.25443 22.75C4.04608 23.0909 4.91337 23.218 5.76957 23.1187C6.4212 23.1152 7.07167 23.0632 7.71557 22.9631C11.146 22.337 14.4279 21.0705 17.3896 19.2298C20.4143 17.4988 23.0853 15.2126 25.2622 12.4911C27.1958 9.90733 27.7185 7.59111 26.7416 5.96089Z" fill="#50E6FF"/>
</g>
<defs>
<radialGradient id="paint0_radial_46_14084" cx="0" cy="0" r="1" gradientUnits="userSpaceOnUse" gradientTransform="translate(13.9266 13.9284) scale(9.5952 9.51185)">
<stop offset="0.183" stop-color="#5EA0EF"/>
<stop offset="1" stop-color="#0078D4"/>
</radialGradient>
<clipPath id="clip0_46_14084">
<rect width="28" height="28" fill="white"/>
</clipPath>
</defs>
</svg>
