<svg width="16" height="16" viewBox="0 0 16 16" fill="none" xmlns="http://www.w3.org/2000/svg">
<g clip-path="url(#clip0_74_49024)">
<path d="M0.321778 2.78933C0.144 2.78933 0 2.64533 0 2.46844V0.320889C0 0.144 0.144 0 0.321778 0H2.336C2.51378 0 2.65778 0.144 2.65778 0.320889C2.65778 0.497778 2.51378 0.641778 2.336 0.641778H0.643556V2.46667C0.643556 2.64356 0.500444 2.78844 0.322667 2.78844C0.322667 2.78844 0.322667 2.78933 0.321778 2.78933ZM16 2.46844V0.320889C16 0.144 15.856 0 15.6782 0H13.664C13.4862 0 13.3422 0.144 13.3422 0.320889C13.3422 0.497778 13.4862 0.641778 13.664 0.641778H15.3564V2.46667C15.3564 2.64356 15.5004 2.78756 15.6782 2.78756C15.856 2.78756 15.9991 2.64356 16 2.46667V2.46844ZM2.65778 15.6791C2.65778 15.5022 2.51378 15.3582 2.336 15.3582H0.643556V13.5333C0.643556 13.3564 0.499556 13.2124 0.321778 13.2124C0.144 13.2124 0 13.3564 0 13.5333V15.68C0 15.8569 0.144889 16 0.321778 16H2.336C2.51378 16 2.65778 15.856 2.65778 15.6791ZM16 15.68V13.5333C16 13.3564 15.856 13.2124 15.6782 13.2124C15.5004 13.2124 15.3573 13.3564 15.3564 13.5333V15.3582H13.664C13.4862 15.3582 13.3422 15.5022 13.3422 15.68C13.3422 15.8569 13.4862 16.0009 13.664 16.0009H15.6782C15.8551 16.0009 15.9991 15.8578 16 15.6809V15.68Z" fill="#76BC2D"/>
<path d="M12.3235 7.15278C12.3235 10.5501 8.21064 13.2923 7.31731 13.8586C7.21064 13.9172 7.08176 13.9172 6.9742 13.8586C6.02042 13.2479 1.89331 10.5057 1.89331 7.15278V3.00967C1.89331 2.83456 2.03109 2.68967 2.2062 2.68167C5.40976 2.59189 4.67998 1.19189 7.07909 1.19189C9.4782 1.19189 8.73331 2.59278 11.9369 2.68167C12.112 2.68967 12.2498 2.83367 12.2498 3.00967L12.3244 7.15189L12.3235 7.15278Z" fill="#0078D4"/>
<path d="M7.14667 13.2112C2.98401 10.4877 2.52979 8.07257 2.52979 7.15257V3.30546C4.19467 3.21124 4.86312 2.73924 5.40623 2.35613C5.8409 2.04946 6.15556 1.82812 7.07823 1.82812C8.0009 1.82812 8.31112 2.04946 8.74223 2.35524C9.28179 2.73835 9.94667 3.21035 11.6178 3.30546L11.6871 7.16324C11.6871 7.88946 11.3565 10.4815 7.14579 13.2112H7.14667Z" fill="url(#paint0_linear_74_49024)"/>
<path opacity="0.7" d="M10.4312 3.84717H7.37436C7.30514 3.84717 7.24902 3.90328 7.24902 3.9725V4.33606C7.24902 4.40528 7.30514 4.46139 7.37436 4.46139H10.4312C10.5005 4.46139 10.5566 4.40528 10.5566 4.33606V3.9725C10.5566 3.90328 10.5005 3.84717 10.4312 3.84717Z" fill="white"/>
<path opacity="0.6" d="M10.4312 5.104H7.37436C7.30514 5.104 7.24902 5.16012 7.24902 5.22934V5.59289C7.24902 5.66211 7.30514 5.71823 7.37436 5.71823H10.4312C10.5005 5.71823 10.5566 5.66211 10.5566 5.59289V5.22934C10.5566 5.16012 10.5005 5.104 10.4312 5.104Z" fill="white"/>
<path opacity="0.3" d="M7.50945 8.87402H3.785C3.71578 8.87402 3.65967 8.93014 3.65967 8.99936V9.36291C3.65967 9.43213 3.71578 9.48825 3.785 9.48825H7.50945C7.57867 9.48825 7.63478 9.43213 7.63478 9.36291V8.99936C7.63478 8.93014 7.57867 8.87402 7.50945 8.87402Z" fill="white"/>
<path opacity="0.4" d="M10.4321 7.61768H3.785C3.71578 7.61768 3.65967 7.67379 3.65967 7.74301V8.10656C3.65967 8.17578 3.71578 8.2319 3.785 8.2319H10.4321C10.5013 8.2319 10.5574 8.17578 10.5574 8.10656V7.74301C10.5574 7.67379 10.5013 7.61768 10.4321 7.61768Z" fill="white"/>
<path opacity="0.5" d="M9.825 6.36084H3.78411C3.71538 6.36084 3.65967 6.41656 3.65967 6.48528V6.85062C3.65967 6.91935 3.71538 6.97506 3.78411 6.97506H9.825C9.89373 6.97506 9.94945 6.91935 9.94945 6.85062V6.48528C9.94945 6.41656 9.89373 6.36084 9.825 6.36084Z" fill="white"/>
<path d="M3.76456 3.84717H6.68189C6.73967 3.84717 6.78678 3.88806 6.78678 3.93783V5.62761C6.78678 5.67828 6.73967 5.71828 6.68189 5.71828H3.76456C3.70678 5.71828 3.65967 5.67739 3.65967 5.62761V3.93783C3.65967 3.88717 3.70678 3.84717 3.76456 3.84717Z" fill="url(#paint1_linear_74_49024)"/>
<path d="M11.0657 14.7954C12.7554 14.7954 14.1252 13.4256 14.1252 11.7358C14.1252 10.0461 12.7554 8.67627 11.0657 8.67627C9.37591 8.67627 8.0061 10.0461 8.0061 11.7358C8.0061 13.4256 9.37591 14.7954 11.0657 14.7954Z" fill="#76BC2D"/>
<path d="M10.7519 12.7606L10.471 13.0414C10.423 13.0894 10.3457 13.0894 10.2977 13.0414L9.18126 11.925C9.13326 11.877 9.13326 11.7997 9.18126 11.7517L9.37593 11.557C9.42393 11.509 9.50126 11.509 9.54926 11.557L10.7519 12.7597V12.7606Z" fill="white"/>
<path d="M10.3031 13.0451L10.0222 12.7642L12.5893 10.1971C12.6373 10.1491 12.7147 10.1491 12.7627 10.1971L12.9573 10.3918C13.0053 10.4398 13.0053 10.5171 12.9573 10.5651L10.4764 13.046C10.4284 13.094 10.3511 13.094 10.3031 13.046V13.0451Z" fill="#F0F0F0"/>
</g>
<defs>
<linearGradient id="paint0_linear_74_49024" x1="7.10845" y1="13.2112" x2="7.10845" y2="1.82812" gradientUnits="userSpaceOnUse">
<stop stop-color="#0078D4"/>
<stop offset="0.82" stop-color="#5EA0EF"/>
</linearGradient>
<linearGradient id="paint1_linear_74_49024" x1="5.22322" y1="3.84717" x2="5.22322" y2="5.71828" gradientUnits="userSpaceOnUse">
<stop stop-color="white" stop-opacity="0.7"/>
<stop offset="1" stop-color="white" stop-opacity="0.6"/>
</linearGradient>
<clipPath id="clip0_74_49024">
<rect width="16" height="16" fill="white"/>
</clipPath>
</defs>
</svg>
